<?xml version="1.0" encoding="utf-8"?>
<!-- Generator: Adobe Illustrator 23.0.1, SVG Export Plug-In . SVG Version: 6.00 Build 0)  -->
<svg version="1.1" id="レイヤー_1" xmlns="http://www.w3.org/2000/svg" xmlns:xlink="http://www.w3.org/1999/xlink" x="0px"
	 y="0px" viewBox="0 0 563.44 195.82" style="enable-background:new 0 0 563.44 195.82;" xml:space="preserve">
<style type="text/css">
	.st0{fill:#FFFFFF;}
</style>
<g>
	<path class="st0" d="M54.53,101.42c-3.16,2.53-5.62,0.84-7.58-0.46c-9.62-6.39-16.15-15.19-17.96-26.7
		C25.87,54.54,33.53,38.73,48.12,26C63.06,12.95,80.87,5.79,100.15,2.23c14.73-2.71,29.63-2.86,44.49-0.96
		C161.28,3.4,177.85,6.03,194.51,8c17.07,2.01,34.17,4.5,51.3,4.92c21.12,0.53,42.21-1.47,62.68-7.54c2.72-0.81,5.44-0.68,6.45,2.33
		c1.04,3.13-1.21,4.69-3.93,5.56c-0.81,0.26-1.67,0.67-2.48,0.61c-11.87-0.89-22.92,3.47-34.36,5.3c-10.72,1.72-21.39,3.9-32.18,5
		c-10.77,1.1-21.66,1.78-32.46,1.42c-11.73-0.39-23.45-1.98-35.12-3.41c-10.18-1.25-20.29-2.99-30.43-4.56
		c-2.85-0.44-5.21,0.5-6.86,2.68c-4.86,6.44-10.5,12.51-14.19,19.58c-11.18,21.42-21.59,43.25-32.28,64.92
		c-0.15,0.31-0.12,0.72-0.28,1.8c5.15-2.33,9.89-4.61,14.73-6.63c20.11-8.41,40.73-15.11,62.31-18.62
		c6.58-1.07,13.12-1.45,19.62,0.72c3.65,1.22,6.07,3.59,6.37,7.26c0.33,4-2.69,6.11-5.96,7.59c-5.29,2.41-10.5,1.19-15.69-0.56
		c-4.04-1.36-8.05-2.94-12.2-3.78c-7.3-1.47-14.37,0.6-21.3,2.55c-17.52,4.93-34.6,11.1-50.73,19.65c-1.35,0.71-2.97,1.6-3.62,2.85
		c-10.17,19.59-20.19,39.24-30.23,58.89c-0.44,0.87-0.7,1.83-1.03,2.76c-2.71,7.73,0.39,10.61,8.81,10.13
		c0.49-0.03,1.03-0.42,1.43-0.29c1.09,0.34,2.11,0.87,3.16,1.32c-0.57,0.97-0.96,2.6-1.73,2.81c-3.62,0.98-7.32,2-11.03,2.19
		c-4.41,0.23-8.87-0.6-13.3-0.56c-10.35,0.09-20.71,0.53-31.06,0.61c-2.26,0.02-4.62-0.61-6.75-1.43c-0.95-0.36-1.44-1.92-2.14-2.93
		c0.99-0.5,1.96-1.35,2.99-1.43c3.55-0.28,7.2,0.12,10.68-0.49c6.63-1.17,10.18-6.5,13.75-11.48c12.81-17.9,22.28-37.72,32.56-57.07
		c14.41-27.13,28.68-54.37,46.43-79.52c5.71-8.09,12.8-15.2,19.27-22.76c0.47-0.55,0.95-1.08,2.12-2.41
		c-6.68-0.47-12.59-1.31-18.49-1.22c-13.16,0.21-26.25,1.5-38.56,6.64c-14.86,6.2-26.76,15.65-31.6,31.71
		c-4.79,15.89-2.34,30.33,10.03,42.31C51.02,97.2,52.6,99.24,54.53,101.42z"/>
	<path class="st0" d="M190.53,129.78c-7.3,0.1-13.46,5.29-21.39,2.42c1.25-0.95,1.87-1.72,2.66-1.99
		c14.56-4.88,29.13-9.75,43.76-14.45c0.95-0.3,2.6,0.59,3.46,1.41c0.42,0.41,0.1,2.15-0.43,2.9c-6.25,8.95-12.85,17.66-18.84,26.77
		c-4.84,7.35-9.45,14.94-13.29,22.84c-5.27,10.83,3.68,20.55,15.16,20.25c20.47-0.52,34.94-10.45,46.11-26.66
		c7.58-11,15.38-21.86,23.06-32.79c0.6-0.85,1.07-1.8,1.84-3.11c-5.24,0.38-9.91,2.74-15.69,0.37c1.88-1.17,2.93-2.15,4.16-2.54
		c11.17-3.5,22.38-6.89,33.58-10.3c0.46-0.14,0.99-0.22,1.46-0.14c1.63,0.3,3.25,0.68,4.87,1.02c-0.63,1.41-1.06,2.96-1.91,4.22
		c-11.09,16.33-22.33,32.57-33.32,48.97c-2.57,3.83-4.59,8.07-6.45,12.3c-1.53,3.51,0.31,6.39,4.08,6.83
		c2.41,0.28,4.87,0.02,7.29,0.22c1.72,0.14,3.42,0.64,5.7,1.09c-2.22,3.72-5.25,4.57-8.2,4.57c-7.25-0.01-14.5-0.58-21.76-0.71
		c-3.52-0.06-7.04,0.36-10.56,0.57c-2.15,0.13-4.31,0.27-7.36,0.46c1.04-2.72,1.78-4.67,2.7-7.09c-4.48,1.73-8.67,3.53-12.99,4.97
		c-11.53,3.83-23.39,4.51-35.26,2.46c-16.5-2.85-23.14-15.57-15.55-30.99c4.01-8.16,10.07-15.31,15.26-22.89
		C185.15,137.19,187.77,133.65,190.53,129.78z"/>
	<path class="st0" d="M544.33,115.92c-12.43-0.38-24.85-0.96-37.28-1.1c-14.6-0.17-27.54,4.73-39.16,13.51
		c-2.23,1.68-4.38,4.56-8.26,2.97c1.99-5.86,6.85-8.78,11.44-11.64c14.12-8.81,29.61-11.91,46.13-10.31
		c13.35,1.3,26.68,2.26,40.02-0.37c1.93-0.38,4.13,0.64,6.21,1.01c-1.24,1.66-2.28,3.53-3.76,4.95
		c-8.45,8.12-17.18,15.95-25.48,24.21c-13.8,13.72-29.35,24.93-46.69,33.7c-1.43,0.72-2.81,1.53-4.19,2.33
		c-0.27,0.16-0.45,0.46-0.66,0.68c0.13,0.19,0.19,0.35,0.26,0.35c15.36,0.79,30.72,1.75,46.09,2.26c8.09,0.27,15.18-2.19,19.75-9.69
		c0.64-1.06,2.57-1.34,3.9-1.98c0.22,1.4,1.01,3.01,0.58,4.16c-4.86,12.82-13.56,18.38-25.54,18.52
		c-11.52,0.13-23.06-1.45-34.6-1.91c-12.9-0.51-25.78-0.38-38.31,3.6c-1.63,0.52-3.59-0.01-5.4-0.05c-0.28-0.65-0.56-1.29-0.84-1.94
		c1.71-1.34,3.46-2.64,5.13-4.04c10.27-8.59,20.5-17.23,30.79-25.79c18.39-15.3,36.56-30.92,58.36-41.41
		c0.61-0.29,1.18-0.68,1.77-1.02C544.49,116.58,544.41,116.25,544.33,115.92z"/>
	<path class="st0" d="M411.53,118.8c-15.32-0.6-30.66-1.85-45.97-1.59c-11.97,0.2-22.63,5.52-32.37,12.45
		c-1.28,0.91-2.69,1.7-4.13,2.32c-0.63,0.27-1.5-0.01-2.26-0.04c0.06-0.75-0.18-1.75,0.21-2.19c2.11-2.37,4.08-5.01,6.63-6.81
		c8.94-6.31,18.94-9.83,29.85-11.22c10.89-1.39,21.5,0.35,32.25,1.31c8.38,0.75,16.91-0.18,25.37-0.38c2.22-0.05,4.44-0.3,6.65-0.2
		c0.99,0.04,1.94,0.72,2.91,1.11c-0.48,1.04-0.72,2.35-1.5,3.07c-3.17,2.9-6.6,5.53-9.78,8.43c-6.57,5.98-13.2,11.91-19.52,18.15
		c-14.14,13.95-30.61,24.42-48.3,33.18c-0.87,0.43-1.72,0.92-3.25,1.73c1.4,0.22,2.14,0.45,2.86,0.42
		c12.97-0.44,25.75,1.29,38.6,2.69c5.54,0.6,11.56-0.51,16.94-2.18c3.28-1.02,6.01-4.36,8.53-7.08c1.7-1.84,3.12-3.01,5.6-1.99
		c-0.33,8.74-9.29,19.69-18.76,20.95c-8.58,1.14-17.46,1.16-26.11,0.46c-17.15-1.39-34.24-3.78-51.32,0.49
		c-2.11,0.53-4.23,1.1-6.37,1.43c-0.7,0.11-2.06-0.39-2.14-0.8c-0.16-0.8,0.16-1.89,0.66-2.6c0.7-0.98,1.69-1.78,2.64-2.56
		c10.64-8.74,21.25-17.53,31.97-26.17c18.72-15.11,37.21-30.57,59.45-40.53c0.3-0.13,0.51-0.45,0.77-0.68
		C411.61,119.57,411.57,119.18,411.53,118.8z"/>
</g>
</svg>
