<?xml version="1.0" encoding="utf-8"?>
<!-- Generator: Adobe Illustrator 23.0.1, SVG Export Plug-In . SVG Version: 6.00 Build 0)  -->
<svg version="1.1" id="レイヤー_1" xmlns="http://www.w3.org/2000/svg" xmlns:xlink="http://www.w3.org/1999/xlink" x="0px"
	 y="0px" viewBox="0 0 573.8 388" style="enable-background:new 0 0 573.8 388;" xml:space="preserve">
<style type="text/css">
	.st0{clip-path:url(#SVGID_2_);fill:#989899;}
	.st1{clip-path:url(#SVGID_2_);fill:none;stroke:#FFFFFF;stroke-width:6;stroke-miterlimit:10;}
	.st2{clip-path:url(#SVGID_2_);fill:none;stroke:#FFFFFF;stroke-width:13;stroke-miterlimit:10;}
	.st3{clip-path:url(#SVGID_2_);fill:none;stroke:#FFFFFF;stroke-width:16;stroke-miterlimit:10;}
	.st4{clip-path:url(#SVGID_2_);fill:none;stroke:#FFFFFF;stroke-width:8;stroke-miterlimit:10;}
	.st5{clip-path:url(#SVGID_2_);fill:none;stroke:#FFFFFF;stroke-width:10;stroke-miterlimit:10;}
	.st6{clip-path:url(#SVGID_2_);fill:#FFFFFF;stroke:#4A2F24;stroke-width:7;stroke-miterlimit:10;}
	.st7{clip-path:url(#SVGID_2_);}
	.st8{fill:none;stroke:#4A2F24;stroke-width:30;stroke-miterlimit:10;}
	.st9{fill:none;stroke:#4A2F24;stroke-width:30;stroke-miterlimit:10;stroke-dasharray:11.8383,19.7305;}
	.st10{clip-path:url(#SVGID_2_);fill:none;stroke:#FFFFFF;stroke-width:47;stroke-miterlimit:10;}
	.st11{clip-path:url(#SVGID_2_);fill:#4B3025;stroke:#FFFFFF;stroke-miterlimit:10;}
	.st12{fill:#FFFFFF;}
	.st13{fill:#4A2F24;}
	.st14{clip-path:url(#SVGID_2_);fill:#FFFFFF;}
	.st15{clip-path:url(#SVGID_2_);fill:#EB8432;stroke:#FFFFFF;stroke-miterlimit:10;}
	.st16{clip-path:url(#SVGID_2_);fill:#4B3025;}
	.st17{opacity:0.3;clip-path:url(#SVGID_2_);fill:none;stroke:#EB8432;stroke-width:3;stroke-miterlimit:10;}
	.st18{fill:#EB8432;}
	.st19{fill:#989899;}
</style>
<g>
	<defs>
		<rect id="SVGID_1_" width="573.8" height="388"/>
	</defs>
	<clipPath id="SVGID_2_">
		<use xlink:href="#SVGID_1_"  style="overflow:visible;"/>
	</clipPath>
	<rect x="-68.09" class="st0" width="731.5" height="388"/>
	<line class="st1" x1="-5.71" y1="152.52" x2="290.84" y2="134.58"/>
	<line class="st2" x1="300.21" y1="-8.17" x2="294.29" y2="90.01"/>
	<line class="st3" x1="295" y1="500.17" x2="290.74" y2="90.01"/>
	<line class="st2" x1="291.61" y1="139.26" x2="291.61" y2="139.26"/>
	<line class="st1" x1="639.78" y1="167.87" x2="290.84" y2="134.58"/>
	<line class="st2" x1="161.15" y1="142.42" x2="165.24" y2="323.67"/>
	<line class="st4" x1="-6.22" y1="295.09" x2="291.61" y2="259.34"/>
	<path class="st5" d="M440.88-3.72c0,0,8.91,172.71-22.84,189.42s-132.17,9.51-132.17,9.51L3.9,212.44"/>
	<path class="st2" d="M299.26,7.45c0,0,187.86,16.13,200.12,17.8c12.26,1.67,37.33,16.71,95.82,12.81s69.08,8.86,69.08,8.86
		l12.39,9.49"/>
	<path class="st3" d="M674.33,123.3L164.9,94.53c-33.96-1.92-66.98-11.83-96.38-28.94L-44.2,0"/>
	<polyline class="st2" points="664.29,212.44 620.83,139.26 629.19,34.16 	"/>
	<line class="st1" x1="528.95" y1="111.14" x2="521.11" y2="219.68"/>
	<path class="st2" d="M0,370.3c0,0,353.42-99.37,361.77-103.27c8.36-3.9,203.91-55.71,245.13-62.95
		c41.23-7.24,63.51-11.7,63.51-11.7"/>
	
		<rect x="14.22" y="295.26" transform="matrix(0.9661 -0.2582 0.2582 0.9661 -67.771 101.4594)" class="st6" width="676.32" height="26.96"/>
	<g class="st7">
		<g>
			<line class="st8" x1="35.88" y1="393.46" x2="41.68" y2="391.91"/>
			<line class="st9" x1="60.74" y1="386.81" x2="569.65" y2="250.69"/>
			<line class="st8" x1="579.18" y1="248.14" x2="584.98" y2="246.59"/>
		</g>
	</g>
	<line class="st10" x1="406.92" y1="187.43" x2="417.88" y2="249.64"/>
	<polyline class="st2" points="136.52,425.26 151.18,396.29 270.96,366.44 	"/>
	<line class="st2" x1="658.46" y1="267.04" x2="270.96" y2="366.44"/>
	<path class="st6" d="M636.74,211.94l-363.39,97.2c-5.32,1.42-8.47,6.88-7.05,12.2l5.17,19.34c1.42,5.32,6.88,8.47,12.2,7.05
		l363.39-97.2c5.32-1.42,8.47-6.88,7.05-12.2l-5.17-19.34C647.52,213.67,642.06,210.52,636.74,211.94z"/>
	<polygon class="st11" points="251.86,37.36 251.86,98.5 197.82,157.15 251.86,119.92 251.86,148.16 409.13,148.16 409.13,37.36 	
		"/>
	<g class="st7">
		<path class="st12" d="M283.89,81.33c-0.65,0.48-1.15,0.16-1.56-0.09c-1.97-1.22-3.31-2.9-3.68-5.1c-0.64-3.76,0.93-6.78,3.93-9.21
			c3.06-2.49,6.72-3.86,10.67-4.53c3.02-0.52,6.08-0.55,9.13-0.18c3.41,0.41,6.81,0.91,10.23,1.28c3.5,0.38,7.01,0.86,10.52,0.94
			c4.33,0.1,8.66-0.28,12.86-1.44c0.56-0.15,1.12-0.13,1.32,0.45c0.21,0.6-0.25,0.9-0.81,1.06c-0.17,0.05-0.34,0.13-0.51,0.12
			c-2.43-0.17-4.7,0.66-7.05,1.01c-2.2,0.33-4.39,0.74-6.6,0.96c-2.21,0.21-4.44,0.34-6.66,0.27c-2.41-0.07-4.81-0.38-7.2-0.65
			c-2.09-0.24-4.16-0.57-6.24-0.87c-0.59-0.08-1.07,0.09-1.41,0.51c-1,1.23-2.15,2.39-2.91,3.74c-2.29,4.09-4.43,8.25-6.62,12.39
			c-0.03,0.06-0.02,0.14-0.06,0.34c1.06-0.44,2.03-0.88,3.02-1.27c4.12-1.6,8.35-2.88,12.78-3.55c1.35-0.2,2.69-0.28,4.02,0.14
			c0.75,0.23,1.24,0.69,1.31,1.39c0.07,0.76-0.55,1.17-1.22,1.45c-1.09,0.46-2.15,0.23-3.22-0.11c-0.83-0.26-1.65-0.56-2.5-0.72
			c-1.5-0.28-2.95,0.11-4.37,0.49c-3.59,0.94-7.1,2.12-10.41,3.75c-0.28,0.14-0.61,0.31-0.74,0.54c-2.09,3.74-4.14,7.49-6.2,11.24
			c-0.09,0.17-0.14,0.35-0.21,0.53c-0.56,1.48,0.08,2.03,1.81,1.93c0.1-0.01,0.21-0.08,0.29-0.06c0.22,0.06,0.43,0.17,0.65,0.25
			c-0.12,0.19-0.2,0.5-0.36,0.54c-0.74,0.19-1.5,0.38-2.26,0.42c-0.9,0.04-1.82-0.11-2.73-0.11c-2.12,0.02-4.25,0.1-6.37,0.12
			c-0.46,0-0.95-0.12-1.38-0.27c-0.19-0.07-0.3-0.37-0.44-0.56c0.2-0.09,0.4-0.26,0.61-0.27c0.73-0.05,1.48,0.02,2.19-0.09
			c1.36-0.22,2.09-1.24,2.82-2.19c2.63-3.42,4.57-7.2,6.68-10.89c2.96-5.18,5.88-10.38,9.52-15.18c1.17-1.54,2.63-2.9,3.95-4.34
			c0.1-0.1,0.19-0.21,0.43-0.46c-1.37-0.09-2.58-0.25-3.79-0.23c-2.7,0.04-5.38,0.29-7.91,1.27c-3.05,1.18-5.49,2.99-6.48,6.05
			c-0.98,3.03-0.48,5.79,2.06,8.07C283.17,80.52,283.5,80.91,283.89,81.33z"/>
		<path class="st12" d="M311.79,86.74c-1.5,0.02-2.76,1.01-4.39,0.46c0.26-0.18,0.38-0.33,0.55-0.38c2.99-0.93,5.98-1.86,8.98-2.76
			c0.19-0.06,0.53,0.11,0.71,0.27c0.09,0.08,0.02,0.41-0.09,0.55c-1.28,1.71-2.64,3.37-3.86,5.11c-0.99,1.4-1.94,2.85-2.73,4.36
			c-1.08,2.07,0.75,3.92,3.11,3.87c4.2-0.1,7.17-1.99,9.46-5.09c1.56-2.1,3.15-4.17,4.73-6.26c0.12-0.16,0.22-0.34,0.38-0.59
			c-1.07,0.07-2.03,0.52-3.22,0.07c0.38-0.22,0.6-0.41,0.85-0.48c2.29-0.67,4.59-1.31,6.89-1.96c0.09-0.03,0.2-0.04,0.3-0.03
			c0.33,0.06,0.67,0.13,1,0.2c-0.13,0.27-0.22,0.57-0.39,0.81c-2.28,3.12-4.58,6.22-6.83,9.34c-0.53,0.73-0.94,1.54-1.32,2.35
			c-0.31,0.67,0.06,1.22,0.84,1.3c0.49,0.05,1,0,1.5,0.04c0.35,0.03,0.7,0.12,1.17,0.21c-0.46,0.71-1.08,0.87-1.68,0.87
			c-1.49,0-2.97-0.11-4.46-0.13c-0.72-0.01-1.44,0.07-2.17,0.11c-0.44,0.02-0.88,0.05-1.51,0.09c0.21-0.52,0.37-0.89,0.55-1.35
			c-0.92,0.33-1.78,0.67-2.67,0.95c-2.36,0.73-4.8,0.86-7.23,0.47c-3.38-0.54-4.75-2.97-3.19-5.91c0.82-1.56,2.07-2.92,3.13-4.37
			C310.69,88.15,311.22,87.48,311.79,86.74z"/>
		<path class="st12" d="M384.36,84.1c-2.55-0.07-5.1-0.18-7.65-0.21c-2.99-0.03-5.65,0.9-8.03,2.58c-0.46,0.32-0.9,0.87-1.69,0.57
			c0.41-1.12,1.4-1.68,2.35-2.22c2.9-1.68,6.07-2.27,9.46-1.97c2.74,0.25,5.47,0.43,8.21-0.07c0.4-0.07,0.85,0.12,1.27,0.19
			c-0.25,0.32-0.47,0.67-0.77,0.94c-1.73,1.55-3.52,3.04-5.23,4.62c-2.83,2.62-6.02,4.76-9.58,6.43c-0.29,0.14-0.58,0.29-0.86,0.44
			c-0.06,0.03-0.09,0.09-0.14,0.13c0.03,0.04,0.04,0.07,0.05,0.07c3.15,0.15,6.3,0.33,9.45,0.43c1.66,0.05,3.11-0.42,4.05-1.85
			c0.13-0.2,0.53-0.26,0.8-0.38c0.05,0.27,0.21,0.57,0.12,0.79c-1,2.45-2.78,3.51-5.24,3.53c-2.36,0.03-4.73-0.28-7.1-0.36
			c-2.65-0.1-5.29-0.07-7.86,0.69c-0.33,0.1-0.74,0-1.11-0.01c-0.06-0.12-0.11-0.25-0.17-0.37c0.35-0.26,0.71-0.5,1.05-0.77
			c2.11-1.64,4.2-3.29,6.32-4.92c3.77-2.92,7.5-5.9,11.97-7.9c0.13-0.06,0.24-0.13,0.36-0.2C384.39,84.22,384.37,84.16,384.36,84.1z
			"/>
		<path class="st12" d="M357.12,84.64c-3.14-0.11-6.29-0.35-9.43-0.3c-2.46,0.04-4.64,1.05-6.64,2.38
			c-0.26,0.17-0.55,0.32-0.85,0.44c-0.13,0.05-0.31,0-0.46-0.01c0.01-0.14-0.04-0.33,0.04-0.42c0.43-0.45,0.84-0.96,1.36-1.3
			c1.83-1.2,3.88-1.88,6.12-2.14c2.23-0.27,4.41,0.07,6.62,0.25c1.72,0.14,3.47-0.03,5.2-0.07c0.46-0.01,0.91-0.06,1.36-0.04
			c0.2,0.01,0.4,0.14,0.6,0.21c-0.1,0.2-0.15,0.45-0.31,0.59c-0.65,0.55-1.35,1.06-2.01,1.61c-1.35,1.14-2.71,2.27-4,3.46
			c-2.9,2.66-6.28,4.66-9.91,6.33c-0.18,0.08-0.35,0.17-0.67,0.33c0.29,0.04,0.44,0.09,0.59,0.08c2.66-0.08,5.28,0.25,7.92,0.51
			c1.14,0.12,2.37-0.1,3.48-0.42c0.67-0.19,1.23-0.83,1.75-1.35c0.35-0.35,0.64-0.57,1.15-0.38c-0.07,1.67-1.91,3.76-3.85,4
			c-1.76,0.22-3.58,0.22-5.35,0.09c-3.52-0.27-7.02-0.72-10.53,0.09c-0.43,0.1-0.87,0.21-1.31,0.27c-0.14,0.02-0.42-0.07-0.44-0.15
			c-0.03-0.15,0.03-0.36,0.13-0.5c0.14-0.19,0.35-0.34,0.54-0.49c2.18-1.67,4.36-3.34,6.56-4.99c3.84-2.88,7.63-5.83,12.19-7.74
			c0.06-0.03,0.11-0.09,0.16-0.13C357.13,84.79,357.13,84.72,357.12,84.64z"/>
	</g>
	<g class="st7">
		<g>
			<path class="st12" d="M274.55,119.17c0.22,0.04,0.85,0.26,0.85,0.49c0,0.12-0.12,0.2-0.43,0.18c-0.25,0.51-0.73,1.43-1.63,2.13
				c-0.2,0.16-0.42-0.02-0.26-0.22c0.66-0.86,1.11-1.72,1.24-2.44C274.36,119.17,274.4,119.14,274.55,119.17z M277.43,117.27
				c0,0.12-0.13,0.2-0.4,0.27c-0.05,1.32-0.02,3.77-0.02,5.61c-0.01,0.49-0.37,0.7-0.68,0.7c-0.28,0-0.17-0.3-0.92-0.49
				c-0.18-0.05-0.15-0.28,0.02-0.27c0.26,0.02,0.5,0.06,0.66,0.06c0.22,0,0.32-0.08,0.34-0.32c0.03-0.55,0.02-2.12,0.02-2.93
				c0-0.57,0-1.84-0.09-2.77c-0.01-0.09,0.05-0.12,0.16-0.12C276.9,117.02,277.43,117.08,277.43,117.27z M278.52,119.28
				c1.06,0.41,1.7,1.19,1.7,1.73c0,0.24-0.11,0.44-0.36,0.44c-0.18,0-0.28-0.07-0.39-0.3c-0.35-0.71-0.55-1.02-1.14-1.61
				C278.17,119.39,278.3,119.19,278.52,119.28z"/>
			<path class="st12" d="M286.86,117.57c0.12-0.16,0.27-0.32,0.36-0.32c0.18,0,0.69,0.38,0.69,0.56c0,0.13-0.17,0.2-0.34,0.27
				c-0.06,1.15,0.03,4.78,0.03,5.37c0,0.24-0.15,0.31-0.37,0.31c-0.19,0-0.25-0.14-0.25-0.27v-0.36h-4.84v0.42
				c0,0.17-0.12,0.27-0.38,0.27c-0.16,0-0.23-0.09-0.23-0.24c0-0.94,0.09-5.1-0.03-6.25c-0.01-0.05,0.04-0.11,0.11-0.11
				c0.11,0,0.63,0.17,0.82,0.34H286.86z M282.15,117.89c-0.02,0.42-0.03,1.66-0.03,2.25h2.14v-2.26h-2.06L282.15,117.89z
				 M282.12,122.81h2.12v-2.36h-2.13L282.12,122.81z M284.81,120.14h2.18c0-1,0.01-1.91,0-2.26h-1.98c0.01,0.01,0.01,0.02,0.01,0.02
				c0,0.09-0.07,0.14-0.21,0.19V120.14z M286.97,122.81c0-0.59,0.01-1.49,0.02-2.36h-2.18v2.36H286.97z"/>
			<path class="st12" d="M289.87,121.86c0.08,0.24,0.1,0.55,0.09,0.82c-0.06,0.46-0.34,0.75-0.74,0.76c-0.2,0-0.32-0.14-0.32-0.31
				c-0.01-0.27,0.32-0.36,0.52-0.63c0.13-0.18,0.13-0.4,0.16-0.6C289.6,121.71,289.82,121.7,289.87,121.86z M293.9,118.77
				c0.13-0.17,0.28-0.35,0.38-0.35c0.17,0,0.64,0.36,0.64,0.54c0,0.12-0.16,0.19-0.32,0.24c-0.02,0.59,0.01,1.9,0.01,2.19
				c0,0.24-0.13,0.3-0.33,0.3c-0.18,0-0.24-0.14-0.24-0.27v-0.19h-3.95c-0.1,0-0.17-0.03-0.17-0.16c0-0.12,0.07-0.16,0.17-0.16h3.96
				v-0.78h-3.71c-0.1,0-0.17-0.03-0.17-0.16c0-0.12,0.07-0.16,0.17-0.16h3.72c0-0.3,0-0.57,0-0.75h-3.63
				c-0.09,0-0.17-0.03-0.17-0.14c-0.28,0.22-0.58,0.41-0.9,0.57c-0.2,0.09-0.32-0.09-0.14-0.24c0.95-0.75,1.75-1.59,2.1-2.49
				c0.03-0.09,0.08-0.1,0.17-0.09c0.25,0.05,0.72,0.24,0.72,0.39c0,0.12-0.13,0.16-0.33,0.14c-0.07,0.11-0.16,0.23-0.25,0.34h1.32
				c0.14-0.16,0.32-0.34,0.41-0.34c0.16,0,0.66,0.5,0.66,0.71c0,0.09-0.24,0.2-0.44,0.2c-0.21,0.21-0.44,0.44-0.69,0.64H293.9z
				 M291.36,117.89c-0.25,0.29-0.54,0.6-0.88,0.88h1.87c0.23-0.26,0.44-0.57,0.61-0.88H291.36z M294.38,122.5
				c0,0.63,0.13,0.56,0.13,0.79c0,0.21-0.39,0.44-1.94,0.44c-1.5,0-1.64-0.09-1.64-0.75c0-0.24,0.02-0.83-0.02-1.24
				c-0.01-0.11,0.02-0.14,0.13-0.14c0.15,0,0.74,0.05,0.74,0.23c0,0.09-0.1,0.15-0.3,0.18c-0.02,0.28-0.02,0.63-0.02,0.89
				c0.01,0.25,0.02,0.29,1.09,0.29c0.95,0,1.25-0.09,1.37-0.26c0.08-0.12,0.16-0.32,0.2-0.46
				C294.18,122.29,294.38,122.3,294.38,122.5z M292.55,122.25c-0.06-0.16-0.15-0.32-0.24-0.46c-0.09-0.17,0-0.32,0.22-0.24
				c0.41,0.16,0.83,0.43,0.8,0.81c-0.02,0.22-0.17,0.37-0.4,0.35C292.71,122.69,292.64,122.48,292.55,122.25z M295.98,122.75
				c-0.01,0.23-0.17,0.38-0.4,0.37c-0.21-0.01-0.31-0.22-0.43-0.49c-0.09-0.19-0.2-0.39-0.31-0.57c-0.09-0.17-0.01-0.32,0.21-0.24
				C295.52,121.98,296,122.33,295.98,122.75z"/>
			<path class="st12" d="M297.97,121.79c0,0.12-0.13,0.17-0.37,0.15c-0.12,0.42-0.27,1.01-0.74,1.51c-0.15,0.14-0.33,0.05-0.25-0.14
				c0.3-0.61,0.43-1.22,0.47-1.84c0.01-0.07,0.06-0.13,0.15-0.1C297.48,121.42,297.97,121.64,297.97,121.79z M298.03,120.76
				c-0.29,0.03-0.59,0.05-0.88,0.06c-0.06,0.19-0.14,0.34-0.27,0.32c-0.17-0.02-0.23-0.33-0.23-0.75c0-0.08,0.03-0.09,0.09-0.09
				c0.28,0.01,0.54,0.01,0.8,0.01c0.46-0.63,0.86-1.4,1.1-2.04c0.02-0.06,0.09-0.09,0.16-0.05c0.34,0.12,0.69,0.34,0.67,0.5
				c-0.02,0.12-0.22,0.13-0.39,0.12c-0.27,0.39-0.64,0.99-1.04,1.47c0.35-0.01,0.67-0.02,0.95-0.03c-0.03-0.13-0.09-0.27-0.13-0.39
				c-0.06-0.17,0.07-0.31,0.24-0.18c0.36,0.28,0.63,0.63,0.54,0.96c-0.05,0.18-0.19,0.3-0.38,0.24c-0.13-0.03-0.17-0.14-0.2-0.3
				c-0.11,0.02-0.22,0.05-0.34,0.07v0.01c0,0.06-0.06,0.11-0.19,0.13v1.16c0,0.81,0.02,1.37,0.02,1.59c0,0.17-0.1,0.28-0.35,0.28
				c-0.15,0-0.21-0.09-0.21-0.24c0-0.25,0.02-0.8,0.02-1.64V120.76z M296.81,118.45c-0.1-0.16,0-0.31,0.21-0.23
				c0.16,0.08,0.31,0.16,0.43,0.27c0.29-0.53,0.48-1.06,0.63-1.63c0.01-0.06,0.07-0.1,0.14-0.08c0.37,0.12,0.77,0.38,0.74,0.54
				c-0.02,0.09-0.17,0.1-0.35,0.09c-0.22,0.39-0.55,0.91-0.89,1.36c0.09,0.12,0.14,0.27,0.14,0.4c-0.01,0.2-0.13,0.35-0.33,0.34
				c-0.2,0-0.25-0.22-0.39-0.51C297.06,118.81,296.92,118.62,296.81,118.45z M299.23,122.4c-0.17-0.05-0.2-0.22-0.24-0.44
				c-0.02-0.14-0.07-0.31-0.12-0.45c-0.06-0.15,0.05-0.27,0.22-0.16c0.32,0.21,0.61,0.53,0.52,0.83
				C299.57,122.37,299.41,122.45,299.23,122.4z M300.48,121.2c0.12-0.13,0.24-0.26,0.32-0.26c0.11,0,0.52,0.31,0.52,0.48
				c0,0.08-0.08,0.13-0.24,0.19c-0.21,0.67-0.62,1.43-1.61,1.93c-0.18,0.09-0.3-0.08-0.15-0.2c0.77-0.6,1.08-1.21,1.21-1.83h-0.84
				c-0.1,0-0.17-0.03-0.17-0.16c0-0.12,0.07-0.16,0.17-0.16H300.48z M302.23,120.24c0,0.05-0.04,0.09-0.11,0.11
				c0.08,0.53,0.24,0.96,0.4,1.27c0.28-0.24,0.57-0.5,0.78-0.85c0.05-0.08,0.09-0.11,0.2-0.04c0.26,0.18,0.46,0.44,0.43,0.56
				c-0.02,0.09-0.15,0.1-0.35,0.05c-0.22,0.16-0.56,0.37-0.9,0.54c0.27,0.38,0.62,0.71,1.21,0.96c0.19,0.08,0.17,0.18-0.03,0.23
				c-0.13,0.03-0.21,0.13-0.26,0.25c-0.03,0.08-0.11,0.13-0.23,0.05c-0.43-0.29-0.78-0.75-1.03-1.29c-0.2-0.44-0.31-0.96-0.41-1.58
				v2.71c-0.01,0.52-0.28,0.72-0.59,0.72c-0.16,0-0.21-0.13-0.3-0.22c-0.09-0.09-0.2-0.13-0.39-0.2c-0.06-0.03-0.11-0.07-0.11-0.13
				c0-0.07,0.06-0.1,0.13-0.09c0.08,0.01,0.37,0.03,0.49,0.03c0.16,0,0.25,0,0.27-0.25c0.02-0.32,0.01-2.2,0-2.82h-0.88v0.29
				c0,0.17-0.1,0.24-0.32,0.24c-0.13,0-0.2-0.08-0.2-0.21c0.01-0.56,0.05-2.2-0.02-2.96c-0.01-0.06,0.05-0.11,0.11-0.09
				c0.13,0.02,0.41,0.12,0.58,0.24h0.43c0.08-0.26,0.13-0.6,0.17-0.87c0.01-0.09,0.06-0.09,0.14-0.08c0.36,0.04,0.72,0.17,0.72,0.3
				c0,0.1-0.06,0.15-0.32,0.19c-0.1,0.17-0.18,0.3-0.3,0.46h1.13c0.1-0.15,0.24-0.31,0.33-0.31c0.14,0,0.57,0.32,0.57,0.49
				c0,0.1-0.13,0.17-0.25,0.22c-0.01,0.52,0.01,1.88,0.01,2.15c0,0.24-0.11,0.3-0.32,0.3c-0.17,0-0.22-0.14-0.22-0.27v-0.09h-0.58
				V120.24z M300.58,118.05c-0.01,0.15-0.02,0.49-0.02,0.77h2.26c0-0.31,0-0.59,0-0.77H300.58z M302.81,119.91l0.01-0.78h-2.25v0.78
				H302.81z"/>
			<path class="st12" d="M310.93,121.01c-0.02,0.43-0.06,0.88-0.1,1.25h0.02c0.14-0.2,0.31-0.41,0.4-0.41
				c0.13,0,0.62,0.41,0.62,0.57c0,0.1-0.11,0.15-0.37,0.15h-0.72c-0.02,0.14-0.04,0.26-0.06,0.34c-0.16,0.65-0.53,0.88-0.89,0.88
				c-0.17,0-0.2-0.06-0.28-0.2c-0.07-0.12-0.17-0.18-0.32-0.22c-0.19-0.05-0.15-0.24,0.01-0.22c0.15,0.02,0.39,0.04,0.56,0.04
				c0.19,0,0.3-0.03,0.41-0.35c0.02-0.07,0.05-0.16,0.07-0.27h-2.43l-0.05,0.35c-0.02,0.17-0.11,0.2-0.29,0.21
				c-0.29,0.02-0.32-0.09-0.28-0.24c0.12-0.5,0.24-1.18,0.34-1.88h-0.66c-0.1,0-0.17-0.03-0.17-0.16c0-0.12,0.07-0.16,0.17-0.16h0.7
				c0.08-0.6,0.13-1.2,0.14-1.69c-0.17,0.21-0.35,0.42-0.55,0.6c-0.17,0.14-0.34,0.02-0.21-0.17c0.09-0.13,0.17-0.25,0.25-0.38
				c-0.06,0.02-0.11,0.02-0.17,0.02h-0.89c0,0.52,0,0.97,0,1.12c0,0.53,0.02,3.04,0.02,3.36c0,0.18-0.1,0.27-0.35,0.27
				c-0.15,0-0.23-0.09-0.23-0.23c0-0.3,0.05-2.11,0.07-2.96c-0.26,0.47-0.6,0.92-1.01,1.28c-0.21,0.16-0.39,0.02-0.22-0.19
				c0.62-0.79,1.06-1.7,1.23-2.6v-0.06h-0.94c-0.1,0-0.17-0.03-0.17-0.16c0-0.12,0.07-0.16,0.17-0.16h0.94
				c-0.01-0.71-0.03-1.47-0.09-1.86c-0.02-0.07,0.03-0.11,0.1-0.11c0.48,0,0.89,0.05,0.89,0.24c0,0.13-0.16,0.2-0.39,0.25
				c-0.01,0.27-0.02,0.89-0.02,1.48h0.24c0.14-0.22,0.31-0.45,0.4-0.45c0.13,0,0.46,0.35,0.54,0.54c0.4-0.68,0.67-1.36,0.8-1.98
				c0.02-0.08,0.05-0.11,0.16-0.09c0.27,0.05,0.73,0.22,0.73,0.37c0,0.11-0.11,0.16-0.35,0.16c-0.08,0.18-0.17,0.4-0.3,0.64h2.19
				c0.17-0.24,0.38-0.52,0.5-0.52c0.15,0,0.69,0.47,0.69,0.65c0,0.12-0.16,0.18-0.41,0.18h-3.14c-0.1,0.19-0.22,0.38-0.36,0.56
				c0.02,0,0.03,0,0.05,0.01c0.14,0.03,0.38,0.14,0.53,0.24h1.87c0.1-0.16,0.28-0.38,0.39-0.38c0.17,0,0.58,0.35,0.58,0.53
				c0,0.12-0.15,0.21-0.31,0.28c-0.01,0.27-0.02,0.71-0.05,1.18h0.13c0.13-0.22,0.3-0.44,0.39-0.44c0.14,0,0.54,0.44,0.54,0.6
				c0,0.11-0.13,0.16-0.29,0.16H310.93z M306.85,120.58c-0.18-0.02-0.22-0.19-0.31-0.4c-0.06-0.15-0.13-0.29-0.21-0.43
				c-0.09-0.14,0.01-0.28,0.19-0.2c0.35,0.18,0.68,0.44,0.65,0.74C307.16,120.48,307.03,120.59,306.85,120.58z M307.9,122.26h0.91
				c0.07-0.35,0.13-0.79,0.19-1.25h-0.93L307.9,122.26z M308.11,120.7h0.92c0.05-0.46,0.08-0.9,0.09-1.29h-0.84L308.11,120.7z
				 M310.33,122.26c0.05-0.35,0.09-0.8,0.12-1.25h-1c-0.05,0.53-0.11,1.04-0.14,1.25H310.33z M309.87,119.4
				c-0.04,0.06-0.13,0.08-0.25,0.09l-0.13,1.2h0.98c0.02-0.5,0.02-0.97,0.01-1.29H309.87z"/>
			<path class="st12" d="M318.45,120.02c0,0.15-0.11,0.2-0.43,0.24c-0.24,0.03-0.7,0.1-1.1,0.16c0.16,0.09,0.25,0.19,0.25,0.28
				c0,0.14-0.1,0.27-0.13,0.39c-0.3,0.99-1.02,1.84-1.93,2.29c-0.22,0.12-0.38-0.12-0.18-0.26c0.82-0.59,1.48-1.57,1.6-2.38
				c0.02-0.09-0.04-0.14-0.16-0.24c-0.31,0.05-0.52,0.09-0.68,0.09c-0.09,0-0.22-0.05-0.35-0.12c-0.18,0.55-0.49,1.21-0.99,1.76
				c-0.18,0.19-0.43,0.02-0.28-0.2c0.4-0.63,0.8-1.46,0.91-2.43c0.01-0.11-0.01-0.14-0.13-0.25c-0.13-0.09-0.29-0.17-0.29-0.28
				c0-0.09,0.14-0.17,0.27-0.17c0.24,0,0.78,0.18,0.78,0.46c0,0.16-0.05,0.43-0.14,0.75c0.09,0.02,0.17,0.04,0.22,0.04
				c0.24,0,0.96-0.13,1.21-0.2c0.5-0.1,0.8-0.25,1.07-0.24C318.23,119.69,318.45,119.85,318.45,120.02z"/>
			<path class="st12" d="M326.29,123.06c0.18-0.27,0.42-0.59,0.56-0.59c0.18,0,0.8,0.51,0.8,0.71c0,0.12-0.13,0.19-0.48,0.19h-6.66
				c-0.1,0-0.17-0.03-0.17-0.16c0-0.12,0.07-0.16,0.17-0.16h1.51c0.01-1.14,0.06-4.42-0.04-5.33c-0.01-0.05,0.05-0.11,0.11-0.11
				c0.09,0.01,0.42,0.11,0.64,0.24c0.86-0.2,1.83-0.48,2.45-0.85c0.17-0.11,0.24-0.14,0.4-0.02c0.17,0.12,0.36,0.32,0.43,0.46
				c0.09,0.17-0.02,0.32-0.36,0.14c-0.69,0.26-1.92,0.53-2.86,0.64c-0.05,0.02-0.1,0.03-0.17,0.04c-0.02,0.29-0.03,1.05-0.03,1.59
				h3.29c0.17-0.26,0.41-0.56,0.54-0.56c0.17,0,0.77,0.49,0.77,0.69c0,0.11-0.15,0.19-0.46,0.19h-1.21
				c-0.01,0.08-0.08,0.13-0.22,0.17v2.71H326.29z M322.61,123.06h2.11v-2.89h-2.12v0.26L322.61,123.06z"/>
			<path class="st12" d="M328.76,121.75c0.11,0.24,0.17,0.49,0.19,0.76c0,0.51-0.32,0.74-0.58,0.78c-0.14,0.02-0.26-0.04-0.28-0.18
				c-0.03-0.2,0.27-0.36,0.39-0.64c0.09-0.18,0.02-0.4,0-0.64C328.45,121.63,328.68,121.58,328.76,121.75z M331.2,120.77
				c0.1-0.13,0.22-0.24,0.28-0.24c0.17,0,0.6,0.33,0.6,0.46c0,0.09-0.13,0.2-0.28,0.27c-0.02,0.6-0.08,1.33-0.29,1.81
				c-0.24,0.62-0.75,0.71-1.03,0.71c-0.12,0-0.21-0.03-0.25-0.17c-0.04-0.12-0.09-0.18-0.25-0.26c-0.15-0.07-0.08-0.26,0.06-0.24
				c0.17,0.03,0.32,0.08,0.5,0.08c0.22,0,0.39-0.12,0.47-0.31c0.22-0.45,0.28-1.19,0.28-1.81h-2.01v0.24c0,0.17-0.11,0.26-0.34,0.26
				c-0.13,0-0.21-0.08-0.21-0.22c0-0.71,0.07-3.3-0.03-4.2c-0.01-0.06,0.05-0.11,0.12-0.1c0.13,0.02,0.5,0.15,0.67,0.29h1.43
				c0.14-0.21,0.32-0.44,0.43-0.44c0.14,0,0.65,0.42,0.66,0.6c0,0.1-0.13,0.16-0.39,0.16h-0.87c0.01,0.01,0.01,0.02,0.01,0.03
				c0,0.08-0.05,0.13-0.16,0.16v0.63h0.32c0.13-0.2,0.28-0.39,0.38-0.39c0.13,0,0.57,0.4,0.58,0.56c0,0.1-0.13,0.15-0.33,0.15h-0.95
				v0.84h0.32c0.13-0.2,0.29-0.39,0.39-0.39c0.13,0,0.58,0.4,0.58,0.56c0.01,0.1-0.12,0.15-0.34,0.15h-0.94v0.82H331.2z
				 M329.72,122.6c-0.07,0.17-0.22,0.24-0.39,0.17c-0.15-0.06-0.13-0.24-0.14-0.45c-0.02-0.14-0.05-0.28-0.08-0.42
				c-0.03-0.16,0.09-0.27,0.24-0.13C329.63,122.03,329.84,122.33,329.72,122.6z M330.08,118.79h-0.81v0.53v0.31h0.81V118.79z
				 M330.08,118.48v-0.82h-0.78c-0.02,0.17-0.02,0.5-0.02,0.82H330.08z M329.28,120.77h0.8v-0.82h-0.8L329.28,120.77z
				 M329.89,122.15c-0.03-0.12-0.08-0.25-0.12-0.37c-0.05-0.16,0.07-0.27,0.22-0.15c0.28,0.21,0.5,0.46,0.42,0.71
				c-0.04,0.16-0.18,0.25-0.34,0.2C329.92,122.51,329.93,122.33,329.89,122.15z M330.57,121.9c-0.04-0.12-0.09-0.23-0.15-0.34
				c-0.07-0.14,0.02-0.26,0.19-0.17c0.28,0.17,0.52,0.38,0.48,0.63c-0.02,0.15-0.13,0.25-0.29,0.23
				C330.65,122.23,330.64,122.07,330.57,121.9z M333.73,120.12c0.07,1.49,0.78,2.58,1.9,3.04c0.23,0.09,0.14,0.18-0.02,0.24
				c-0.21,0.07-0.3,0.15-0.37,0.25c-0.09,0.11-0.16,0.17-0.35,0.06c-0.94-0.66-1.42-1.9-1.52-3.58h-0.4l-0.01,0.21
				c-0.03,1.23-0.15,2.67-1.29,3.47c-0.18,0.15-0.37-0.02-0.19-0.22c0.73-0.82,0.94-1.83,0.96-3.36c0.01-0.8,0-1.97-0.1-2.98
				c-0.01-0.12,0.04-0.16,0.14-0.14c0.13,0.02,0.53,0.2,0.69,0.35h1.25c0.12-0.16,0.28-0.34,0.36-0.34c0.17,0,0.64,0.35,0.64,0.52
				c0,0.1-0.13,0.17-0.28,0.23c-0.02,0.65,0.01,2.14,0.01,2.47c0,0.24-0.13,0.3-0.36,0.3c-0.18,0-0.24-0.14-0.24-0.27v-0.23H333.73z
				 M332.97,117.75c0.02,0.62,0.02,1.37,0,2.05h1.58c0.01-0.63,0.02-1.62,0.01-2.05H332.97z"/>
			<path class="st12" d="M340.82,120.78c0,0.9-0.5,2.17-1.34,2.17c-0.43,0-0.88-0.54-1.06-1c-0.05-0.12,0.03-0.24,0.18-0.12
				c0.18,0.14,0.49,0.46,0.82,0.46c0.55,0,0.91-0.96,0.91-1.69c0-0.49-0.08-0.97-0.62-0.97c-0.12,0-0.28,0.02-0.46,0.06
				c-0.43,1.04-1.38,2.79-1.86,3.36c-0.18,0.21-0.28,0.28-0.44,0.28c-0.18,0-0.26-0.14-0.26-0.31s0.09-0.31,0.29-0.53
				c0.52-0.61,1.29-1.71,1.73-2.66c-0.56,0.15-1.18,0.34-1.48,0.34c-0.39,0-0.67-0.42-0.67-0.79c0-0.18,0.1-0.21,0.25-0.1
				c0.21,0.15,0.37,0.31,0.68,0.31c0.33,0,0.89-0.12,1.4-0.22c0.2-0.53,0.28-0.88,0.28-1.08c0-0.17-0.1-0.25-0.28-0.34
				c-0.31-0.16-0.35-0.21-0.35-0.27c0-0.1,0.2-0.17,0.43-0.17c0.4,0,0.92,0.24,0.83,0.63c-0.07,0.29-0.23,0.73-0.39,1.15
				c0.11-0.02,0.21-0.02,0.3-0.02C340.5,119.26,340.82,119.73,340.82,120.78z M343.29,121.42c0,0.34-0.17,0.53-0.39,0.53
				c-0.22,0-0.3-0.15-0.33-0.79c-0.04-0.72-0.32-1.18-0.9-1.5c-0.17-0.09-0.08-0.26,0.1-0.24
				C342.69,119.56,343.29,120.4,343.29,121.42z"/>
			<path class="st12" d="M346.74,123.02c1.45-0.1,2.63-0.42,2.62-1.33c-0.01-0.49-0.49-0.87-0.95-0.87c-0.58,0-1.23,0.41-1.61,0.75
				c-0.27,0.24-0.45,0.56-0.69,0.56c-0.22,0-0.44-0.24-0.44-0.55c0-0.85,0.29-1.94,0.4-2.47c0.05-0.26,0.19-0.35,0.39-0.38
				c0.27-0.04,0.65-0.11,0.9-0.17c0.32-0.08,0.32-0.22,0.2-0.38c-0.15-0.2-0.35-0.35-0.67-0.53c-0.25-0.14-0.17-0.27,0.1-0.24
				c0.83,0.11,1.44,0.69,1.44,1.23c0,0.28-0.16,0.35-0.58,0.34c-0.37-0.02-0.87-0.01-1.13,0.05c-0.19,0.05-0.24,0.11-0.25,0.28
				c-0.02,0.21,0,0.39-0.03,0.54c-0.12,0.56-0.21,0.97-0.21,1.28c0,0.13,0.03,0.2,0.18,0.11c0.58-0.34,1.19-0.77,2-0.77
				c0.77,0,1.55,0.5,1.57,1.4c0.02,0.89-1.04,1.67-3.25,1.44C346.51,123.28,346.47,123.03,346.74,123.02z"/>
			<path class="st12" d="M353.51,123.6c0,0.17-0.11,0.25-0.35,0.25c-0.14,0-0.21-0.08-0.21-0.22c0.01-0.45,0.04-2.31,0.01-3.26
				c-0.29,0.31-0.63,0.61-0.99,0.86c-0.2,0.14-0.35-0.03-0.17-0.2c0.8-0.8,1.45-1.73,1.78-2.54c0.04-0.08,0.06-0.12,0.15-0.09
				c0.25,0.07,0.72,0.32,0.7,0.48c-0.01,0.11-0.15,0.14-0.36,0.1c-0.14,0.22-0.36,0.51-0.62,0.83c0.18,0.09,0.38,0.2,0.38,0.3
				c0,0.1-0.13,0.15-0.29,0.17c-0.02,0.31-0.02,1.29-0.02,1.51L353.51,123.6z M351.96,118.68c0.7-0.56,1.25-1.19,1.55-1.83
				c0.04-0.07,0.08-0.11,0.17-0.08c0.24,0.09,0.67,0.35,0.65,0.5c-0.02,0.1-0.14,0.13-0.35,0.09c-0.32,0.38-1.02,1.13-1.85,1.55
				C351.92,119.02,351.79,118.84,351.96,118.68z M356.75,123.04c0.64,0.08,1.59,0.01,2.3-0.04c0.23-0.01,0.22,0.24,0.02,0.27
				c-0.17,0.04-0.2,0.09-0.25,0.2c-0.06,0.11-0.13,0.17-0.33,0.17c-0.5,0.02-2,0.02-2.42-0.27c-0.55-0.27-0.81-0.67-0.96-1.2
				c-0.21,0.54-0.55,1.09-1.2,1.59c-0.16,0.13-0.34,0.02-0.21-0.16c0.82-0.95,1.13-1.92,1.19-3.18c0-0.07,0.05-0.11,0.16-0.09
				c0.27,0.04,0.81,0.24,0.81,0.41c0,0.13-0.17,0.19-0.43,0.17c-0.05,0.25-0.09,0.51-0.17,0.77c0.21,0.71,0.48,1.02,0.97,1.22v-3.08
				h-2.08c-0.1,0-0.17-0.03-0.17-0.16c0-0.12,0.07-0.16,0.17-0.16h2.09c0-0.32,0-0.72,0-1.11h-1.63c-0.1,0-0.17-0.03-0.17-0.16
				c0-0.12,0.07-0.16,0.17-0.16h1.62c-0.01-0.49-0.02-0.93-0.05-1.17c-0.01-0.07,0.04-0.11,0.11-0.11c0.13,0,0.88,0.02,0.88,0.23
				c0,0.17-0.17,0.23-0.41,0.28v0.77h0.8c0.17-0.25,0.38-0.54,0.5-0.54c0.17,0,0.69,0.49,0.69,0.67c0,0.12-0.17,0.18-0.4,0.18h-1.58
				v1.11h1.14c0.17-0.26,0.39-0.56,0.52-0.56c0.16,0,0.71,0.49,0.71,0.68c0,0.12-0.16,0.19-0.42,0.19h-1.84
				c0.01,0.02,0.02,0.02,0.02,0.04c0,0.08-0.05,0.13-0.15,0.17v1.1h0.96c0.17-0.26,0.38-0.55,0.5-0.55c0.17,0,0.69,0.49,0.69,0.68
				c0,0.11-0.17,0.18-0.4,0.18h-1.75V123.04z"/>
			<path class="st12" d="M365.65,119.37c0.17-0.26,0.41-0.56,0.54-0.56c0.17,0,0.76,0.49,0.76,0.69c0,0.11-0.14,0.19-0.46,0.19
				h-2.42c0.02,0.02,0.03,0.05,0.03,0.07c0,0.11-0.13,0.16-0.25,0.2l-0.02,1.75c0,0.41-0.26,0.56-0.54,0.56s-0.17-0.26-0.73-0.4
				c-0.19-0.05-0.16-0.27,0.01-0.27c0.16,0.02,0.44,0.05,0.54,0.05c0.16,0,0.21-0.06,0.21-0.22c0.02-0.37,0-1.33-0.03-1.73h-3.23
				c-0.1,0-0.17-0.03-0.17-0.16c0-0.12,0.07-0.16,0.17-0.16h1.48c0.01-0.63,0-1.51-0.05-1.89c-0.01-0.07,0.04-0.11,0.11-0.11
				c0.13,0,0.91,0.02,0.91,0.23c0,0.17-0.17,0.24-0.42,0.29v1.48h1.22c0.02-0.8,0.01-2.01-0.05-2.47c-0.01-0.07,0.04-0.11,0.11-0.11
				c0.13,0,0.9,0.02,0.9,0.23c0,0.17-0.17,0.23-0.42,0.28v0.72h1.1c0.17-0.25,0.39-0.54,0.51-0.54c0.17,0,0.74,0.48,0.74,0.67
				c0,0.11-0.16,0.18-0.44,0.18h-1.91v1.04H365.65z M360.42,122.16c-0.19,0.11-0.34-0.04-0.2-0.21c0.61-0.55,1.16-1.18,1.43-1.85
				c0.03-0.08,0.08-0.12,0.16-0.09c0.28,0.09,0.73,0.38,0.73,0.54c-0.01,0.13-0.17,0.17-0.39,0.11
				C361.76,121.14,361.19,121.74,360.42,122.16z M365.96,121.87c-0.05,0.16-0.31,0.13-0.58,0c-1.15,1.21-2.43,1.86-4.58,2
				c-0.25-0.01-0.25-0.27,0-0.3c1.79-0.29,3.06-0.8,4.32-2.34c0.06-0.06,0.14-0.07,0.22-0.02
				C365.63,121.38,366.01,121.71,365.96,121.87z M366.68,121.12c0.06,0.23-0.03,0.4-0.24,0.46c-0.16,0.04-0.26-0.03-0.38-0.17
				c-0.11-0.14-0.25-0.37-0.44-0.57c-0.17-0.18-0.35-0.34-0.54-0.49c-0.11-0.09-0.03-0.27,0.13-0.24
				C366.09,120.29,366.58,120.76,366.68,121.12z"/>
			<path class="st12" d="M369.96,122.98c-0.07-0.09-0.09-0.17-0.09-0.27c0-0.09,0.05-0.25,0.15-0.38c0.08-0.09,0.17-0.07,0.21,0.04
				c0.1,0.27,0.54,0.65,1.18,0.65c0.73,0,1.17-0.49,1.17-1.19c0-0.65-0.3-1.1-1.4-1.37c-0.38-0.09-0.69-0.13-0.86-0.12
				c-0.13,0.01-0.18-0.05-0.13-0.2c0.14-0.38,0.4-1.44,0.53-2.13c0.03-0.16,0.13-0.2,0.23-0.15c0.04,0.02,0.13,0.03,0.18,0.03
				c0.28,0,1.04,0,1.35-0.02c0.21-0.01,0.32-0.03,0.48-0.2c0.17-0.16,0.32-0.04,0.21,0.16c-0.3,0.57-0.54,0.63-0.62,0.64
				c-0.32,0.05-1.11,0.05-1.51,0.03c-0.03,0-0.07,0.03-0.08,0.06c-0.07,0.31-0.21,0.95-0.28,1.2c-0.01,0.03,0.02,0.03,0.05,0.05
				c0.33,0.05,0.61,0.1,0.88,0.16c1.11,0.24,1.65,0.75,1.65,1.48c0,0.63-0.26,1.12-0.88,1.55c-0.55,0.38-1.06,0.41-1.3,0.41
				C370.4,123.42,370.08,123.14,369.96,122.98z"/>
			<path class="st12" d="M377.94,120.43c0,1.83-0.8,3-2,3c-1.14,0-1.73-1.2-1.73-2.72c0-2.14,1.07-2.95,2.07-2.95
				C377.42,117.76,377.94,118.84,377.94,120.43z M376.05,118.15c-0.9,0-1.16,0.91-1.16,2.2c0,1.17,0.27,2.67,1.26,2.67
				c1,0,1.12-1.22,1.12-2.44C377.27,119.54,377.01,118.15,376.05,118.15z"/>
			<path class="st12" d="M382.63,120.55c0,1.74,0.04,2.71,0.04,3.02c0,0.17-0.13,0.28-0.38,0.28c-0.15,0-0.21-0.09-0.21-0.24
				c0-0.33,0.03-1.19,0.03-2.78c-0.32,0.53-0.74,1.05-1.25,1.42c-0.21,0.15-0.38-0.01-0.21-0.2c0.69-0.75,1.21-1.66,1.42-2.6h-1.17
				c-0.1,0-0.17-0.03-0.17-0.16c0-0.12,0.07-0.16,0.17-0.16h1.2v-1.33c-0.4,0.06-0.82,0.1-1.19,0.12c-0.22,0-0.27-0.24-0.02-0.28
				c0.99-0.16,1.78-0.39,2.38-0.71c0.18-0.1,0.22-0.1,0.37,0.02c0.12,0.1,0.28,0.27,0.34,0.39c0.09,0.17-0.06,0.26-0.35,0.11
				c-0.21,0.07-0.5,0.14-0.82,0.21c0.02,0.02,0.04,0.05,0.04,0.07c0,0.08-0.07,0.13-0.23,0.17v1.22h0.32
				c0.15-0.24,0.35-0.51,0.46-0.51c0.15,0,0.6,0.48,0.6,0.65c0.01,0.12-0.16,0.17-0.33,0.17h-1.04V120.55z M383.15,121.03
				c-0.07-0.16-0.17-0.33-0.26-0.49c-0.09-0.14-0.01-0.28,0.19-0.21c0.42,0.14,0.84,0.44,0.83,0.81c-0.02,0.22-0.15,0.35-0.38,0.34
				C383.34,121.46,383.26,121.28,383.15,121.03z M387.95,120.91c0,0.13-0.2,0.13-0.34,0.11c-0.34,0.56-0.76,1.13-1.21,1.48
				c-0.69,0.57-1.61,1-2.94,1.32c-0.24,0.08-0.35-0.17-0.14-0.27c1.21-0.39,1.99-0.83,2.56-1.3c0.53-0.45,0.87-0.94,1.18-1.67
				c0.03-0.08,0.06-0.12,0.14-0.11C387.51,120.54,387.96,120.75,387.95,120.91z M383.7,120.27c0.39-0.6,0.64-1.23,0.74-1.8
				c0.02-0.08,0.06-0.13,0.14-0.11c0.27,0.06,0.74,0.3,0.74,0.45c0.01,0.11-0.12,0.16-0.35,0.14c-0.18,0.37-0.51,1.01-1.04,1.48
				C383.77,120.58,383.6,120.47,383.7,120.27z M385.67,120.72c0.02-0.37,0.02-0.86,0.01-1.39c0-0.41-0.02-1.94-0.07-2.27
				c-0.02-0.09,0.01-0.15,0.11-0.15c0.44,0,0.85,0.09,0.85,0.24c0,0.16-0.22,0.2-0.39,0.25c-0.02,0.81,0,2.39,0,3.57
				c0,0.36-0.18,0.61-0.52,0.61c-0.24,0-0.2-0.23-0.6-0.39c-0.18-0.08-0.16-0.26,0.01-0.26c0.1,0.01,0.31,0.02,0.39,0.02
				C385.59,120.95,385.66,120.91,385.67,120.72z M388.05,119.7c0,0.23-0.13,0.36-0.36,0.36c-0.16,0-0.24-0.09-0.3-0.25
				c-0.06-0.15-0.13-0.38-0.25-0.61c-0.11-0.21-0.23-0.39-0.38-0.57c-0.08-0.1,0.02-0.25,0.17-0.18
				C387.72,118.75,388.05,119.34,388.05,119.7z"/>
		</g>
	</g>
	<g class="st7">
		<g>
			<path class="st13" d="M392.89,294.77c0.5-0.04,2,0.08,2.13,0.58c0.07,0.27-0.14,0.51-0.82,0.64c-0.24,1.25-0.75,3.54-2.31,5.58
				c-0.34,0.46-0.92,0.21-0.69-0.33c0.94-2.26,1.43-4.39,1.29-6.04C392.46,294.88,392.55,294.78,392.89,294.77z M398.05,288.95
				c0.07,0.27-0.16,0.52-0.72,0.83c0.66,2.91,2.12,8.26,3.18,12.27c0.27,1.08-0.4,1.74-1.07,1.91c-0.62,0.16-0.53-0.56-2.29-0.53
				c-0.42,0-0.49-0.53-0.1-0.6c0.58-0.1,1.13-0.15,1.48-0.24c0.48-0.13,0.66-0.36,0.55-0.9c-0.25-1.22-1.19-4.64-1.65-6.41
				c-0.33-1.25-1.06-4.03-1.8-6c-0.07-0.2,0.04-0.28,0.28-0.35C396.75,288.73,397.94,288.54,398.05,288.95z M401.57,292.72
				c2.53,0.29,4.37,1.63,4.68,2.8c0.14,0.53,0.01,1.02-0.54,1.17c-0.39,0.1-0.66,0.01-1.03-0.43c-1.17-1.36-1.79-1.91-3.41-2.86
				C400.89,293.17,401.05,292.65,401.57,292.72z"/>
			<path class="st13" d="M418.71,284.21c0.17-0.41,0.4-0.86,0.59-0.91c0.39-0.1,1.71,0.43,1.81,0.82c0.07,0.28-0.24,0.54-0.58,0.79
				c0.54,2.55,2.82,10.44,3.16,11.73c0.14,0.53-0.15,0.75-0.63,0.88c-0.41,0.11-0.63-0.17-0.7-0.44l-0.21-0.79l-10.53,2.77
				l0.24,0.91c0.1,0.38-0.1,0.67-0.67,0.82c-0.34,0.09-0.55-0.06-0.63-0.38c-0.54-2.06-2.73-11.2-3.67-13.65
				c-0.04-0.1,0.02-0.26,0.18-0.3c0.24-0.06,1.47,0.01,1.98,0.28L418.71,284.21z M408.66,287.61c0.19,0.94,0.89,3.65,1.23,4.94
				l4.65-1.22l-1.3-4.94l-4.47,1.18L408.66,287.61z M411.44,298.39l4.61-1.21l-1.36-5.16l-4.63,1.22L411.44,298.39z M415.75,291
				l4.73-1.25c-0.57-2.18-1.08-4.19-1.3-4.94l-4.3,1.13c0.02,0.01,0.03,0.03,0.03,0.05c0.05,0.19-0.07,0.35-0.34,0.53L415.75,291z
				 M421.99,295.61c-0.34-1.29-0.84-3.26-1.33-5.17l-4.73,1.25l1.36,5.16L421.99,295.61z"/>
			<path class="st13" d="M434.71,282.81c0.18-0.43,0.41-0.93,0.62-0.99c0.36-0.09,1.6,0.42,1.7,0.82c0.07,0.26-0.24,0.5-0.55,0.71
				c0.3,1.3,1.11,4.15,1.28,4.78c0.14,0.53-0.1,0.72-0.55,0.84c-0.39,0.1-0.6-0.17-0.67-0.45l-0.11-0.41l-8.59,2.26
				c-0.22,0.06-0.4,0.03-0.47-0.24c-0.07-0.26,0.06-0.38,0.29-0.44l8.61-2.27l-0.45-1.7l-8.06,2.12c-0.22,0.06-0.39,0.03-0.47-0.24
				c-0.07-0.26,0.06-0.38,0.29-0.44l8.08-2.13c-0.17-0.65-0.33-1.25-0.43-1.63l-7.89,2.08c-0.21,0.05-0.38,0.03-0.46-0.21
				c-0.47,0.64-1.02,1.22-1.62,1.77c-0.37,0.32-0.76-0.02-0.44-0.43c1.62-2.19,2.89-4.48,3.12-6.65c0.02-0.21,0.11-0.27,0.31-0.28
				c0.58-0.02,1.7,0.1,1.79,0.45c0.07,0.26-0.18,0.42-0.64,0.5c-0.09,0.28-0.21,0.59-0.35,0.9l2.86-0.75
				c0.21-0.44,0.5-0.94,0.69-0.99c0.34-0.09,1.71,0.72,1.83,1.17c0.05,0.21-0.4,0.56-0.85,0.68c-0.32,0.58-0.71,1.21-1.14,1.79
				L434.71,282.81z M427.75,291.87c0.31,0.47,0.54,1.14,0.66,1.75c0.13,1.05-0.3,1.84-1.17,2.09c-0.43,0.11-0.77-0.13-0.87-0.5
				c-0.18-0.6,0.5-0.97,0.77-1.69c0.17-0.47,0.06-0.95,0-1.41C427.06,291.7,427.53,291.54,427.75,291.87z M428.68,282.35
				c-0.38,0.78-0.84,1.62-1.41,2.43l4.06-1.07c0.35-0.7,0.63-1.5,0.81-2.27L428.68,282.35z M437.9,290.68
				c0.37,1.39,0.62,1.16,0.75,1.66c0.12,0.46-0.59,1.18-3.97,2.07c-3.26,0.86-3.62,0.73-4-0.71c-0.14-0.53-0.45-1.83-0.75-2.7
				c-0.08-0.24-0.03-0.32,0.21-0.39c0.33-0.09,1.64-0.32,1.74,0.07c0.05,0.21-0.14,0.38-0.55,0.57c0.13,0.63,0.31,1.39,0.48,1.96
				c0.16,0.54,0.2,0.63,2.53,0.01c2.06-0.54,2.67-0.92,2.82-1.35c0.1-0.3,0.16-0.79,0.16-1.12
				C437.35,290.33,437.79,290.25,437.9,290.68z M433.78,291.18c-0.23-0.31-0.51-0.62-0.78-0.88c-0.3-0.31-0.19-0.7,0.34-0.66
				c0.98,0.11,2.05,0.47,2.2,1.31c0.09,0.49-0.16,0.91-0.67,1C434.39,292.05,434.12,291.62,433.78,291.18z M441.53,290.31
				c0.11,0.5-0.14,0.92-0.66,1.04c-0.47,0.11-0.79-0.3-1.23-0.83c-0.3-0.36-0.65-0.74-1-1.08c-0.3-0.31-0.2-0.7,0.32-0.65
				C440.09,288.9,441.32,289.4,441.53,290.31z"/>
			<path class="st13" d="M440.87,280.44c-0.31-0.28-0.18-0.69,0.31-0.61c0.39,0.08,0.76,0.18,1.1,0.33
				c0.33-1.32,0.44-2.59,0.43-3.93c-0.02-0.14,0.1-0.26,0.26-0.25c0.87,0.04,1.88,0.4,1.92,0.76c0.02,0.21-0.32,0.32-0.7,0.41
				c-0.25,0.98-0.68,2.3-1.15,3.49c0.28,0.22,0.46,0.5,0.54,0.79c0.1,0.45-0.07,0.84-0.52,0.94c-0.43,0.11-0.68-0.34-1.15-0.89
				C441.61,281.09,441.2,280.75,440.87,280.44z M444.83,284.79c-0.62,0.24-1.26,0.44-1.87,0.64c-0.01,0.44-0.12,0.82-0.4,0.86
				c-0.37,0.04-0.69-0.59-0.93-1.5c-0.04-0.17,0.01-0.22,0.15-0.26c0.61-0.14,1.19-0.29,1.74-0.44c0.63-1.65,1.06-3.54,1.21-5.09
				c0.02-0.15,0.14-0.24,0.31-0.21c0.81,0.06,1.69,0.36,1.75,0.71c0.03,0.27-0.4,0.42-0.79,0.48c-0.36,1.01-0.82,2.53-1.42,3.8
				c0.75-0.22,1.45-0.42,2.06-0.61c-0.14-0.27-0.36-0.53-0.52-0.78c-0.22-0.35-0.02-0.71,0.43-0.54c0.93,0.42,1.74,1.03,1.73,1.78
				c0,0.42-0.24,0.76-0.68,0.75c-0.29,0-0.44-0.21-0.6-0.54c-0.23,0.12-0.45,0.23-0.7,0.35l0,0.02c0.04,0.14-0.07,0.28-0.33,0.4
				l0.67,2.54c0.46,1.77,0.82,2.99,0.95,3.47c0.1,0.36-0.06,0.68-0.59,0.82c-0.33,0.09-0.5-0.07-0.58-0.4
				c-0.14-0.55-0.41-1.76-0.89-3.6L444.83,284.79z M445.29,287.08c0.07,0.28-0.2,0.44-0.72,0.54c-0.02,0.98,0,2.37-0.74,3.72
				c-0.25,0.39-0.69,0.31-0.61-0.17c0.3-1.51,0.23-2.9-0.05-4.3c-0.02-0.16,0.05-0.31,0.27-0.31
				C444.03,286.56,445.21,286.76,445.29,287.08z M448.38,287.68c-0.4,0-0.55-0.37-0.77-0.82c-0.13-0.29-0.33-0.63-0.51-0.91
				c-0.21-0.29-0.03-0.62,0.39-0.47c0.81,0.28,1.62,0.8,1.61,1.52C449.1,287.42,448.81,287.7,448.38,287.68z M453.67,281.25
				c0.03,0.1-0.04,0.21-0.18,0.3c0.47,1.1,1.07,1.97,1.61,2.55c0.46-0.67,0.95-1.42,1.21-2.32c0.06-0.2,0.12-0.29,0.41-0.2
				c0.67,0.25,1.26,0.69,1.27,0.99c0,0.22-0.27,0.31-0.73,0.3c-0.39,0.47-1,1.13-1.64,1.7c0.8,0.69,1.76,1.19,3.19,1.4
				c0.46,0.06,0.48,0.29,0.06,0.51c-0.26,0.14-0.39,0.4-0.42,0.7c-0.02,0.19-0.17,0.34-0.47,0.24c-1.11-0.39-2.13-1.18-2.97-2.24
				c-0.68-0.85-1.23-1.93-1.8-3.23l1.56,5.93c0.28,1.14-0.2,1.74-0.87,1.92c-0.34,0.09-0.52-0.17-0.78-0.31
				c-0.24-0.14-0.51-0.18-0.98-0.22c-0.15-0.03-0.28-0.09-0.32-0.23c-0.04-0.15,0.08-0.26,0.24-0.28c0.18-0.03,0.82-0.14,1.08-0.21
				c0.34-0.09,0.55-0.14,0.44-0.7c-0.13-0.72-1.25-4.81-1.63-6.17l-1.9,0.5l0.17,0.63c0.09,0.36-0.08,0.59-0.55,0.71
				c-0.27,0.07-0.47-0.06-0.55-0.35c-0.31-1.24-1.15-4.85-1.75-6.45c-0.05-0.13,0.04-0.27,0.19-0.27c0.29-0.02,0.96,0.04,1.39,0.2
				l0.94-0.25c0.02-0.61-0.05-1.38-0.14-2c-0.03-0.19,0.09-0.23,0.26-0.25c0.81-0.12,1.66-0.05,1.73,0.24
				c0.06,0.22-0.05,0.36-0.58,0.59c-0.13,0.42-0.22,0.76-0.38,1.18l2.45-0.65c0.14-0.39,0.35-0.83,0.54-0.88
				c0.31-0.08,1.42,0.38,1.51,0.74c0.06,0.22-0.18,0.45-0.42,0.62c0.28,1.14,1.1,4.11,1.26,4.69c0.14,0.53-0.07,0.71-0.51,0.83
				c-0.38,0.1-0.56-0.18-0.63-0.46l-0.05-0.19l-1.25,0.33L453.67,281.25z M450.42,284.34c0.18-0.36,0.38-0.71,0.54-0.75
				c0.24-0.06,1.31,0.39,1.41,0.75c0.04,0.17-0.09,0.34-0.42,0.55c-0.08,1.58-0.52,3.47-2.39,5.14c-0.34,0.31-0.7,0-0.44-0.34
				c1.32-1.76,1.65-3.26,1.59-4.69l-1.83,0.48c-0.22,0.06-0.39,0.03-0.47-0.24c-0.07-0.26,0.06-0.38,0.29-0.44L450.42,284.34z
				 M448.83,277.41c0.07,0.33,0.25,1.07,0.41,1.69l4.9-1.29c-0.18-0.67-0.34-1.29-0.44-1.68L448.83,277.41z M454.74,280.2l-0.43-1.7
				l-4.89,1.29l0.45,1.7L454.74,280.2z"/>
			<path class="st13" d="M473.02,277.94c0.2,0.96,0.37,1.96,0.5,2.79l0.05-0.01c0.2-0.51,0.43-1.07,0.64-1.12
				c0.29-0.08,1.59,0.53,1.69,0.89c0.06,0.22-0.15,0.39-0.72,0.54l-1.56,0.41c0.05,0.32,0.06,0.59,0.06,0.79
				c0.03,1.51-0.64,2.22-1.43,2.43c-0.36,0.09-0.46-0.02-0.71-0.27c-0.22-0.22-0.48-0.3-0.83-0.29c-0.44,0.01-0.46-0.43-0.11-0.49
				c0.33-0.05,0.88-0.14,1.24-0.23c0.41-0.11,0.63-0.24,0.69-1.01c0.01-0.17,0.01-0.39,0-0.64l-5.28,1.39l0.1,0.8
				c0.05,0.39-0.13,0.49-0.51,0.63c-0.62,0.22-0.74-0.03-0.76-0.37c-0.03-1.17-0.15-2.73-0.35-4.31l-1.42,0.38
				c-0.22,0.06-0.4,0.03-0.47-0.24c-0.07-0.26,0.06-0.38,0.29-0.44l1.53-0.4c-0.18-1.37-0.42-2.7-0.66-3.77
				c-0.24,0.56-0.51,1.11-0.86,1.62c-0.28,0.4-0.73,0.23-0.56-0.25c0.12-0.33,0.23-0.65,0.33-0.97c-0.11,0.07-0.23,0.12-0.35,0.15
				l-1.94,0.51c0.3,1.13,0.56,2.12,0.65,2.45c0.31,1.17,1.8,6.62,1.99,7.34c0.1,0.39-0.06,0.66-0.6,0.8
				c-0.33,0.09-0.55-0.06-0.63-0.37c-0.17-0.65-1.1-4.64-1.55-6.5c-0.29,1.18-0.77,2.35-1.46,3.37c-0.35,0.48-0.83,0.25-0.59-0.29
				c0.9-2.09,1.32-4.33,1.17-6.4l-0.04-0.14l-2.04,0.54c-0.22,0.06-0.39,0.03-0.47-0.24c-0.07-0.26,0.06-0.38,0.29-0.44l2.04-0.54
				c-0.43-1.56-0.91-3.19-1.28-4.01c-0.08-0.15,0-0.26,0.16-0.3c1.05-0.28,1.96-0.41,2.07,0c0.07,0.27-0.23,0.54-0.71,0.77
				c0.14,0.59,0.48,1.95,0.8,3.25l0.51-0.14c0.18-0.56,0.41-1.15,0.62-1.21c0.29-0.08,1.21,0.5,1.48,0.88
				c0.48-1.72,0.67-3.37,0.59-4.79c-0.01-0.18,0.06-0.27,0.29-0.3c0.61-0.05,1.72,0.06,1.81,0.39c0.06,0.24-0.15,0.41-0.66,0.56
				c-0.07,0.44-0.15,0.97-0.28,1.58l4.77-1.26c0.22-0.63,0.52-1.35,0.78-1.42c0.33-0.09,1.76,0.64,1.88,1.03
				c0.07,0.26-0.24,0.48-0.79,0.63l-6.82,1.8c-0.11,0.47-0.26,0.95-0.45,1.44c0.03-0.01,0.07-0.02,0.11-0.01
				c0.33-0.01,0.9,0.09,1.29,0.23l4.06-1.07c0.13-0.42,0.38-0.98,0.62-1.04c0.38-0.1,1.47,0.44,1.57,0.81
				c0.07,0.26-0.2,0.55-0.51,0.79c0.14,0.6,0.36,1.56,0.57,2.6l0.27-0.07c0.17-0.56,0.4-1.13,0.6-1.19c0.31-0.08,1.42,0.65,1.51,1
				c0.06,0.24-0.2,0.42-0.54,0.51L473.02,277.94z M463.89,279.34c-0.4,0.07-0.59-0.28-0.9-0.7c-0.21-0.29-0.46-0.56-0.69-0.83
				c-0.27-0.26-0.15-0.62,0.3-0.54c0.88,0.19,1.73,0.57,1.85,1.24C464.52,278.94,464.3,279.27,463.89,279.34z M466.71,278.88
				l2.01-0.53c-0.16-1.02-0.35-2.02-0.56-2.88l-1.82,0.48L466.71,278.88z M467.16,282.41l1.97-0.52c-0.05-0.81-0.17-1.81-0.31-2.83
				l-2.02,0.53L467.16,282.41z M469.78,275.04c-0.05,0.14-0.25,0.25-0.49,0.35l0.42,2.7l2.13-0.56c-0.24-1.11-0.51-2.14-0.73-2.83
				L469.78,275.04z M472.44,281.01c-0.1-0.8-0.27-1.8-0.46-2.79l-2.18,0.57c0.19,1.2,0.36,2.34,0.41,2.81L472.44,281.01z"/>
			<path class="st13" d="M488.81,271.48c0.09,0.33-0.12,0.51-0.79,0.76c-0.5,0.2-1.47,0.62-2.29,0.97c0.39,0.1,0.66,0.27,0.71,0.46
				c0.08,0.31-0.07,0.64-0.07,0.93c-0.08,2.33-1.15,4.61-2.88,6.11c-0.41,0.38-0.89-0.04-0.54-0.46c1.44-1.75,2.32-4.28,2.11-6.13
				c-0.02-0.2-0.17-0.29-0.48-0.44c-0.64,0.28-1.08,0.5-1.42,0.59c-0.21,0.05-0.51,0.02-0.84-0.07c-0.08,1.3-0.37,2.92-1.14,4.43
				c-0.29,0.52-0.91,0.3-0.73-0.27c0.51-1.6,0.91-3.65,0.57-5.83c-0.05-0.24-0.1-0.3-0.44-0.47c-0.33-0.13-0.73-0.21-0.8-0.45
				c-0.05-0.2,0.21-0.46,0.48-0.53c0.53-0.14,1.8-0.05,1.96,0.55c0.09,0.34,0.15,0.97,0.12,1.71c0.2,0,0.38-0.01,0.5-0.04
				c0.51-0.14,2-0.84,2.51-1.12c1.04-0.51,1.6-1.01,2.19-1.15C488.12,270.89,488.71,271.1,488.81,271.48z"/>
			<path class="st13" d="M507.6,273.64c0.24-0.69,0.57-1.52,0.88-1.61c0.39-0.1,2.03,0.66,2.14,1.1c0.07,0.26-0.18,0.49-0.94,0.69
				l-14.47,3.81c-0.22,0.06-0.39,0.03-0.47-0.24c-0.07-0.26,0.06-0.38,0.29-0.44l3.29-0.87c-0.64-2.49-2.41-9.71-3.15-11.62
				c-0.05-0.12,0.04-0.27,0.18-0.3c0.21-0.04,0.97,0,1.52,0.15c1.76-0.92,3.7-2.09,4.82-3.27c0.31-0.34,0.43-0.44,0.87-0.27
				c0.43,0.18,0.96,0.5,1.21,0.76c0.31,0.32,0.15,0.71-0.71,0.51c-1.36,0.96-3.86,2.25-5.86,3.03c-0.09,0.06-0.21,0.13-0.34,0.18
				c0.12,0.65,0.54,2.32,0.85,3.5l7.15-1.88c0.23-0.67,0.57-1.47,0.84-1.54c0.36-0.09,1.94,0.62,2.06,1.07
				c0.06,0.24-0.22,0.5-0.89,0.67l-2.64,0.7c0.03,0.17-0.09,0.34-0.38,0.5l1.56,5.93L507.6,273.64z M499.59,275.75l4.58-1.21
				l-1.66-6.31l-4.61,1.21l0.15,0.57L499.59,275.75z"/>
			<path class="st13" d="M516.94,265.81c0.15-0.33,0.34-0.66,0.48-0.7c0.38-0.1,1.49,0.38,1.57,0.67c0.05,0.19-0.16,0.5-0.46,0.76
				c0.3,1.33,0.59,2.94,0.41,4.13c-0.16,1.49-1.22,1.99-1.82,2.15c-0.26,0.07-0.46,0.05-0.64-0.22c-0.15-0.23-0.31-0.34-0.7-0.42
				c-0.37-0.07-0.32-0.52,0-0.55c0.38-0.03,0.75-0.01,1.14-0.12c0.48-0.13,0.77-0.48,0.85-0.96c0.22-1.1-0.07-2.77-0.44-4.12
				l-4.37,1.15l0.14,0.51c0.1,0.38-0.09,0.63-0.59,0.76c-0.29,0.08-0.49-0.05-0.57-0.36c-0.41-1.56-1.75-7.26-2.49-9.17
				c-0.05-0.13,0.04-0.27,0.2-0.29c0.28-0.04,1.17,0.04,1.62,0.25l3.1-0.82c0.19-0.54,0.45-1.15,0.67-1.21
				c0.31-0.08,1.65,0.56,1.77,0.93c0.06,0.22-0.2,0.42-0.77,0.57l-1.89,0.5c0.02,0.01,0.03,0.05,0.04,0.06
				c0.04,0.17-0.04,0.32-0.25,0.45l0.36,1.37l0.7-0.18c0.18-0.51,0.39-1.02,0.6-1.08c0.29-0.08,1.46,0.55,1.57,0.89
				c0.06,0.22-0.19,0.4-0.63,0.52l-2.06,0.54l0.48,1.83l0.69-0.18c0.18-0.5,0.41-1.02,0.62-1.08c0.29-0.08,1.48,0.54,1.57,0.89
				c0.08,0.22-0.17,0.39-0.65,0.52l-2.04,0.54l0.47,1.8L516.94,265.81z M513.18,261.44l-0.47-1.8l-1.7,0.45
				c0.07,0.39,0.25,1.11,0.42,1.81L513.18,261.44z M512.2,269.35c0.38,0.47,0.66,0.96,0.85,1.55c0.29,1.11-0.26,1.79-0.8,2.03
				c-0.29,0.13-0.59,0.06-0.72-0.23c-0.18-0.41,0.38-0.94,0.47-1.63c0.09-0.44-0.18-0.89-0.37-1.39
				C511.47,269.27,511.94,269.03,512.2,269.35z M513.36,262.13l-1.77,0.46l0.3,1.15l0.18,0.69l1.77-0.46L513.36,262.13z
				 M512.77,266.91l1.73-0.46l-0.47-1.8l-1.75,0.46L512.77,266.91z M514.79,270.67c-0.06,0.4-0.34,0.66-0.75,0.58
				c-0.36-0.05-0.41-0.44-0.57-0.9c-0.12-0.3-0.26-0.59-0.41-0.86c-0.16-0.34,0.05-0.64,0.46-0.43
				C514.25,269.47,514.89,270.01,514.79,270.67z M514.89,269.59c-0.14-0.26-0.32-0.5-0.47-0.74c-0.19-0.32,0-0.62,0.39-0.45
				c0.72,0.3,1.34,0.71,1.32,1.32c0,0.37-0.25,0.65-0.62,0.64C515.16,270.36,515.08,269.96,514.89,269.59z M516.24,268.65
				c-0.15-0.23-0.34-0.44-0.52-0.65c-0.24-0.27-0.1-0.58,0.31-0.49c0.72,0.21,1.35,0.53,1.41,1.1c0.05,0.33-0.13,0.62-0.5,0.66
				C516.6,269.33,516.47,268.97,516.24,268.65z M522.07,262.95c1.01,3.22,3.18,5.19,5.89,5.56c0.55,0.06,0.41,0.31,0.1,0.52
				c-0.41,0.27-0.57,0.5-0.66,0.76c-0.12,0.29-0.25,0.45-0.72,0.32c-2.42-0.9-4.18-3.34-5.37-6.96l-0.87,0.23l0.1,0.47
				c0.64,2.71,1.21,5.92-0.82,8.32c-0.31,0.43-0.82,0.16-0.54-0.37c1.11-2.2,0.98-4.55,0.14-7.9c-0.44-1.75-1.13-4.3-1.94-6.46
				c-0.08-0.25,0-0.37,0.23-0.39c0.31-0.03,1.27,0.14,1.69,0.36l2.71-0.71c0.17-0.41,0.41-0.89,0.59-0.94
				c0.36-0.1,1.59,0.39,1.69,0.76c0.06,0.22-0.19,0.45-0.47,0.66c0.32,1.44,1.25,4.68,1.44,5.4c0.14,0.53-0.12,0.73-0.6,0.85
				c-0.39,0.1-0.61-0.17-0.68-0.44l-0.13-0.5L522.07,262.95z M519.06,258.21c0.39,1.35,0.82,2.99,1.18,4.49l3.43-0.9
				c-0.34-1.38-0.9-3.56-1.17-4.5L519.06,258.21z"/>
		</g>
	</g>
	<circle class="st14" cx="334.59" cy="208.34" r="4.1"/>
	<circle class="st14" cx="275.06" cy="183.19" r="4.1"/>
	<circle class="st14" cx="198.37" cy="188.32" r="4.1"/>
	<circle class="st14" cx="382.62" cy="208.34" r="4.1"/>
	<circle class="st14" cx="452.36" cy="225.96" r="4.1"/>
	<circle class="st14" cx="382.62" cy="183.19" r="4.1"/>
	<circle class="st14" cx="362.35" cy="183.19" r="4.1"/>
	<g class="st7">
		<path class="st12" d="M330.41,217.79c0,0.43,0.03,2.4,0.03,2.66c0,0.14-0.09,0.22-0.29,0.22c-0.12,0-0.19-0.07-0.19-0.19
			c0-0.27,0.06-2.02,0.06-2.53c-0.24,0.44-0.57,0.86-0.94,1.19c-0.16,0.12-0.3,0.01-0.17-0.16c0.48-0.61,0.88-1.33,1.05-2.06h-0.83
			c-0.08,0-0.14-0.02-0.14-0.12c0-0.09,0.06-0.12,0.14-0.12h0.88c-0.01-0.57-0.03-1.18-0.08-1.49c-0.01-0.06,0.03-0.09,0.08-0.09
			c0.4,0,0.72,0.04,0.72,0.19c0,0.11-0.12,0.17-0.32,0.21c-0.01,0.22-0.01,0.7-0.01,1.18h0.19c0.12-0.2,0.28-0.41,0.37-0.41
			c0.12,0,0.48,0.38,0.48,0.52c0,0.1-0.13,0.14-0.27,0.14h-0.78V217.79z M331.09,218.69c-0.16-0.01-0.21-0.17-0.29-0.36
			c-0.06-0.13-0.13-0.27-0.21-0.39c-0.07-0.12,0-0.24,0.16-0.17c0.32,0.13,0.64,0.37,0.62,0.66
			C331.36,218.59,331.26,218.7,331.09,218.69z M334.58,220.11c0.01,0.21-0.11,0.32-0.28,0.32c-0.14,0-0.19-0.07-0.25-0.23
			c-0.04-0.11-0.09-0.25-0.16-0.42c-0.66,0.2-1.49,0.33-2.42,0.42c-0.03,0.14-0.09,0.27-0.19,0.25c-0.12-0.01-0.24-0.3-0.27-0.62
			c0-0.06,0.02-0.09,0.07-0.08c0.3-0.01,0.58-0.01,0.84-0.02c0.26-0.68,0.47-1.52,0.53-2.09c0-0.05,0.06-0.08,0.11-0.07
			c0.3,0.07,0.63,0.2,0.63,0.34c-0.01,0.09-0.14,0.12-0.26,0.14c-0.13,0.42-0.41,1.12-0.7,1.67c0.6-0.04,1.1-0.09,1.53-0.16
			c-0.11-0.19-0.22-0.34-0.35-0.51c-0.07-0.09,0.02-0.22,0.16-0.16C334.3,219.26,334.58,219.83,334.58,220.11z M331.09,217.72
			c0.41-0.47,0.74-0.98,0.86-1.47c0.01-0.07,0.05-0.1,0.11-0.09c0.21,0.04,0.57,0.21,0.57,0.33c0,0.09-0.09,0.12-0.26,0.11
			c-0.21,0.36-0.58,0.91-1.12,1.26C331.11,217.96,331,217.85,331.09,217.72z M333.06,215.51c0.09-0.11,0.19-0.22,0.25-0.22
			c0.13,0,0.44,0.29,0.44,0.4c0,0.07-0.08,0.14-0.22,0.17c0.17,0.7,0.53,1.09,1.17,1.44c0.12,0.07,0.11,0.15-0.03,0.21
			c-0.09,0.03-0.18,0.11-0.24,0.17c-0.07,0.09-0.14,0.09-0.27-0.02c-0.52-0.4-0.88-1.17-0.96-1.91h-1.22
			c-0.08,0-0.14-0.03-0.14-0.12c0-0.09,0.06-0.12,0.14-0.12H333.06z"/>
		<path class="st12" d="M336.43,216.7c0,0.24-0.01,0.48-0.02,0.75c-0.03,0.96-0.14,2.19-1.11,2.99c-0.14,0.13-0.3,0.01-0.18-0.16
			c0.59-0.78,0.83-1.55,0.84-3.02c0.01-0.57-0.01-1.26-0.06-1.89c-0.01-0.1,0.03-0.13,0.11-0.12c0.09,0.02,0.32,0.11,0.47,0.21h3.17
			c0.09-0.12,0.22-0.27,0.29-0.27c0.13,0,0.5,0.27,0.5,0.41c0,0.08-0.11,0.14-0.22,0.19c-0.01,0.3,0,0.71,0.01,0.87
			c0,0.19-0.1,0.24-0.28,0.24c0.16,0.09,0.43,0.33,0.43,0.45c0.01,0.09-0.09,0.13-0.32,0.13h-1.63c0.07,0.04,0.11,0.08,0.11,0.12
			c0,0.1-0.16,0.14-0.3,0.16c-0.09,0.14-0.17,0.28-0.26,0.41c0.54-0.02,1.01-0.06,1.42-0.12c-0.07-0.07-0.14-0.15-0.2-0.21
			c-0.08-0.07-0.03-0.19,0.1-0.16c0.57,0.09,0.88,0.39,0.94,0.67c0.04,0.16-0.04,0.29-0.21,0.32c-0.11,0.03-0.19-0.02-0.26-0.12
			c-0.06-0.07-0.11-0.17-0.17-0.27c-0.67,0.15-1.53,0.25-2.55,0.29c-0.04,0.14-0.11,0.25-0.21,0.24c-0.12-0.02-0.19-0.24-0.19-0.58
			c0-0.06,0.03-0.07,0.08-0.07c0.3,0.01,0.59,0.02,0.86,0.01c0.11-0.22,0.19-0.47,0.25-0.7h-1.14c-0.08,0-0.14-0.02-0.14-0.12
			c0-0.09,0.06-0.12,0.14-0.12h2.79c0.11-0.16,0.25-0.34,0.33-0.37c-0.05-0.04-0.07-0.1-0.07-0.16H336.43z M339.83,220.21
			c0.14-0.2,0.31-0.44,0.41-0.45c0.13,0.01,0.59,0.39,0.59,0.55c0,0.09-0.12,0.15-0.35,0.15h-4.3c-0.08,0-0.14-0.03-0.14-0.12
			c0-0.09,0.06-0.12,0.14-0.12h1.95c0.01-0.21,0.01-0.47,0-0.71h-1.37c-0.08,0-0.14-0.02-0.14-0.12c0-0.09,0.06-0.12,0.14-0.12h1.37
			c-0.01-0.24-0.02-0.45-0.03-0.59c-0.01-0.06,0.03-0.09,0.09-0.09c0.11,0,0.66,0.02,0.66,0.17c0,0.12-0.11,0.16-0.28,0.2v0.3h0.65
			c0.13-0.19,0.3-0.42,0.4-0.42c0.12,0,0.57,0.37,0.57,0.52c0,0.09-0.11,0.14-0.34,0.14h-1.28v0.71H339.83z M336.43,215.74
			c0.01,0.25,0.01,0.48,0.01,0.72h3.33c0-0.22,0.01-0.54,0.01-0.74h-3.28L336.43,215.74z"/>
	</g>
	<g class="st7">
		<path class="st12" d="M260.98,164.62c0.35,0,1.15-0.21,1.4-0.29c0.17-0.06,0.22-0.12,0.35-0.12c0.22,0,0.62,0.27,0.62,0.5
			c0,0.15-0.19,0.26-0.32,0.45c-0.55,0.85-1.48,1.84-3.01,2.42c-0.21,0.08-0.31-0.19-0.11-0.28c1.27-0.6,2.29-1.6,2.69-2.38
			c0.13-0.26,0.07-0.32-0.11-0.28c-0.22,0.05-1.28,0.48-1.57,0.48c-0.2,0-0.51-0.25-0.58-0.57c-0.03-0.16,0.07-0.21,0.19-0.14
			C260.73,164.54,260.83,164.62,260.98,164.62z M264.02,167.24c-0.01,0.16-0.11,0.25-0.26,0.25c-0.21,0-0.29-0.22-0.47-0.44
			c-0.19-0.22-0.35-0.38-0.59-0.58c-0.14-0.11-0.03-0.25,0.13-0.22C263.44,166.37,264.04,166.75,264.02,167.24z"/>
		<path class="st12" d="M270.05,164.74c0,0.19-0.17,0.27-0.29,0.55c-0.46,1.12-1.29,2.09-2.72,2.62c-0.2,0.07-0.31-0.14-0.12-0.24
			c1.32-0.68,2.11-1.67,2.39-2.78c0.04-0.17,0.03-0.24-0.14-0.22c-0.21,0.01-0.68,0.07-1.04,0.12c-0.29,0.04-0.7,0.13-0.83,0.13
			c-0.07,0-0.15-0.04-0.27-0.12c0.01,0.04,0.01,0.09,0.02,0.14c0.03,0.24,0.11,1.01,0.07,1.33c-0.01,0.13-0.07,0.24-0.19,0.24
			c-0.15,0.01-0.29-0.16-0.3-0.38c-0.02-0.19,0.04-0.74-0.03-1.13c-0.06-0.29-0.19-0.38-0.37-0.61c-0.11-0.13-0.05-0.22,0.12-0.18
			c0.22,0.05,0.43,0.15,0.53,0.25c0.02,0.02,0.03,0.04,0.05,0.06c0.56-0.02,1.53-0.12,1.99-0.17c0.25-0.03,0.33-0.11,0.47-0.11
			C269.68,164.23,270.05,164.57,270.05,164.74z"/>
		<path class="st12" d="M273.05,167.03c0.15,0.07,0.32,0.08,0.53-0.01c1.04-0.46,2.09-1.36,2.78-2.09c0.12-0.13,0.32,0.01,0.22,0.16
			c-0.53,0.79-1.57,1.71-2.72,2.33c-0.21,0.11-0.38,0.22-0.54,0.22c-0.29,0-0.7-0.35-0.75-0.69c-0.02-0.11,0.06-0.17,0.15-0.12
			C272.8,166.88,272.96,166.98,273.05,167.03z M272.84,164.31c0.46,0.08,0.85,0.31,1.06,0.57c0.17,0.21,0.19,0.54,0,0.62
			c-0.15,0.06-0.27,0.02-0.5-0.28c-0.19-0.24-0.41-0.45-0.68-0.68C272.58,164.42,272.65,164.28,272.84,164.31z"/>
		<path class="st12" d="M262.36,174.28c0.43,0.72,1.24,0.95,2.35,0.99c0.2,0.01,0.19,0.14,0.04,0.2c-0.16,0.06-0.24,0.12-0.29,0.2
			c-0.08,0.12-0.12,0.17-0.3,0.13c-1.02-0.15-1.71-0.6-2.06-1.52h-0.14c-0.12,0.32-0.29,0.59-0.51,0.81
			c-0.45,0.42-1.22,0.7-2.2,0.75c-0.19,0.01-0.19-0.18-0.01-0.21c0.83-0.14,1.5-0.38,1.87-0.79c0.16-0.17,0.27-0.35,0.36-0.56h-2.18
			c-0.08,0-0.14-0.02-0.14-0.12c0-0.09,0.06-0.12,0.14-0.12h2.27c0.06-0.21,0.1-0.42,0.12-0.65c0.01-0.03,0.01-0.06,0.02-0.08h-2.32
			c-0.08,0-0.14-0.02-0.14-0.12c0-0.09,0.06-0.12,0.14-0.12h2.35v-0.67h-1.68c-0.08,0-0.14-0.02-0.14-0.12
			c0-0.09,0.06-0.12,0.14-0.12h1.68v-0.62h-2.05c-0.08,0-0.14-0.02-0.14-0.12c0-0.09,0.06-0.12,0.14-0.12h2.72
			c-0.05-0.03-0.06-0.09-0.02-0.17c0.18-0.26,0.3-0.52,0.39-0.84c0.02-0.06,0.07-0.1,0.14-0.07c0.22,0.08,0.57,0.3,0.56,0.42
			c-0.01,0.09-0.11,0.12-0.3,0.1c-0.15,0.19-0.33,0.39-0.6,0.55c-0.02,0.01-0.03,0.02-0.04,0.03h1.07c0.12-0.19,0.29-0.39,0.37-0.39
			c0.12,0,0.55,0.35,0.56,0.5c0,0.09-0.1,0.14-0.34,0.14h-1.93c0.02,0.02,0.03,0.04,0.03,0.06c0,0.06-0.04,0.1-0.11,0.13v0.43h1.03
			c0.12-0.17,0.27-0.37,0.35-0.37c0.12,0,0.53,0.35,0.53,0.49c0.01,0.09-0.09,0.13-0.32,0.13h-1.6v0.67h1.54
			c0.13-0.19,0.3-0.41,0.39-0.41c0.12,0,0.57,0.37,0.57,0.52c0,0.09-0.09,0.14-0.34,0.14h-2.31c0.21,0.05,0.42,0.14,0.42,0.24
			c0,0.08-0.11,0.13-0.31,0.15c-0.03,0.12-0.05,0.23-0.08,0.34h1.7c0.14-0.21,0.32-0.45,0.42-0.45c0.13,0,0.6,0.38,0.6,0.55
			c0,0.09-0.11,0.15-0.36,0.15H262.36z M260.66,170.45c-0.07-0.12,0-0.24,0.17-0.18c0.33,0.12,0.66,0.36,0.64,0.66
			c-0.01,0.17-0.13,0.29-0.31,0.27c-0.16-0.01-0.22-0.17-0.3-0.36C260.81,170.71,260.73,170.57,260.66,170.45z"/>
		<path class="st12" d="M267.17,175.64c0,0.14-0.09,0.19-0.27,0.19c-0.11,0-0.17-0.06-0.17-0.17c0-0.37,0.03-1.27-0.01-1.84
			c-0.37,0.23-0.79,0.42-1.24,0.55c-0.17,0.05-0.24-0.15-0.06-0.22c0.98-0.42,2.05-1.18,2.54-2.2c0.03-0.06,0.06-0.06,0.12-0.04
			c0.25,0.09,0.51,0.23,0.5,0.32c-0.01,0.05-0.08,0.08-0.2,0.08c0.62,0.7,1.49,1.19,2.48,1.35c0.18,0.04,0.19,0.12,0.03,0.19
			c-0.09,0.04-0.14,0.09-0.21,0.17c-0.09,0.1-0.16,0.12-0.34,0.07c-0.81-0.27-1.65-0.93-2.11-1.62c-0.3,0.43-0.73,0.85-1.24,1.21
			c0.12,0.04,0.27,0.11,0.35,0.18h1.75c0.09-0.11,0.19-0.22,0.25-0.22c0.13,0,0.5,0.27,0.5,0.41c0,0.08-0.11,0.14-0.22,0.19
			c-0.01,0.4,0.01,1.12,0.01,1.33c0,0.19-0.1,0.24-0.28,0.24c-0.14,0-0.19-0.11-0.19-0.21v-0.18h-1.99V175.64z M266.24,171.11
			c0.01,0.07,0.01,0.14,0,0.2c-0.04,0.45-0.31,0.71-0.62,0.72c-0.14,0-0.24-0.09-0.24-0.23c-0.01-0.24,0.3-0.32,0.46-0.6
			c0.1-0.15,0.09-0.35,0.09-0.53c0.01-0.15,0.18-0.17,0.22-0.04c0.03,0.07,0.04,0.15,0.06,0.23h1.67c0.01-0.17,0-0.38-0.01-0.54
			c-0.01-0.06,0.03-0.09,0.09-0.09c0.11,0,0.68,0.02,0.68,0.18c0,0.12-0.12,0.17-0.32,0.22v0.24h1.8c0.1-0.11,0.22-0.21,0.28-0.21
			c0.11,0,0.52,0.35,0.52,0.53c0,0.12-0.16,0.14-0.33,0.17c-0.17,0.14-0.36,0.29-0.5,0.39c-0.13,0.09-0.25,0-0.17-0.14
			c0.08-0.16,0.17-0.34,0.22-0.5H266.24z M267.11,171.55c0.21,0.1,0.51,0.34,0.48,0.44c-0.02,0.09-0.12,0.11-0.32,0.06
			c-0.25,0.25-0.58,0.57-1.01,0.76c-0.16,0.06-0.25-0.06-0.14-0.17c0.36-0.32,0.65-0.69,0.84-1.05
			C266.99,171.54,267.03,171.51,267.11,171.55z M269.16,175.13c0-0.35,0.01-0.83,0.01-1.05h-1.99c-0.01,0.16-0.01,0.59-0.01,0.71
			v0.34H269.16z M269.92,172.23c0.04,0.17-0.04,0.31-0.2,0.35c-0.17,0.04-0.29-0.12-0.46-0.33c-0.12-0.16-0.26-0.3-0.4-0.44
			c-0.1-0.1-0.06-0.23,0.11-0.2C269.38,171.67,269.85,171.92,269.92,172.23z"/>
		<path class="st12" d="M272.44,171.18c0,0.06,0.01,0.12,0,0.17c-0.04,0.45-0.3,0.76-0.63,0.78c-0.14,0-0.25-0.1-0.25-0.25
			c-0.01-0.26,0.31-0.33,0.47-0.64c0.1-0.16,0.09-0.36,0.09-0.54c0.01-0.15,0.17-0.16,0.22-0.04c0.03,0.08,0.05,0.17,0.07,0.27h1.68
			c0.01-0.21,0-0.45-0.02-0.61c-0.01-0.06,0.03-0.09,0.09-0.09c0.11,0,0.7,0.02,0.7,0.19c0,0.12-0.13,0.17-0.32,0.22v0.3h1.77
			c0.1-0.12,0.24-0.24,0.3-0.24c0.12,0,0.53,0.39,0.53,0.55c0,0.14-0.18,0.13-0.33,0.14c-0.15,0.12-0.32,0.26-0.43,0.35
			c-0.13,0.09-0.24,0.02-0.17-0.13c0.02-0.1,0.08-0.27,0.12-0.42H272.44z M276.2,175.38c0.13-0.19,0.3-0.42,0.39-0.42
			c0.12,0,0.58,0.37,0.58,0.52c0,0.09-0.1,0.14-0.34,0.14h-5.09c-0.08,0-0.14-0.02-0.14-0.12c0-0.09,0.06-0.12,0.14-0.12h2.35
			c0-0.25,0-0.56-0.01-0.85h-1.73c-0.08,0-0.14-0.02-0.14-0.12c0-0.09,0.06-0.12,0.14-0.12h1.73c-0.01-0.32-0.02-0.59-0.04-0.75
			c-0.01-0.06,0.03-0.09,0.09-0.09c0.11,0,0.71,0.02,0.71,0.18c0,0.13-0.14,0.18-0.33,0.22v0.43h0.94c0.13-0.19,0.3-0.41,0.39-0.41
			c0.12,0,0.57,0.37,0.57,0.52c0,0.09-0.11,0.14-0.34,0.14h-1.56v0.85H276.2z M274.5,172.18c0.01,0.02,0.02,0.03,0.02,0.05
			c0,0.09-0.15,0.11-0.29,0.12c-0.11,0.18-0.25,0.42-0.41,0.63c0.71-0.02,1.31-0.06,1.83-0.08c-0.07-0.11-0.16-0.22-0.25-0.3
			c-0.07-0.07-0.01-0.2,0.12-0.16c0.58,0.16,0.86,0.5,0.9,0.75c0.03,0.17-0.07,0.3-0.22,0.32c-0.12,0.02-0.19-0.02-0.27-0.13
			c-0.04-0.06-0.08-0.14-0.13-0.24c-0.89,0.17-2.01,0.24-3.17,0.3c-0.03,0.14-0.09,0.24-0.18,0.23c-0.12-0.02-0.24-0.27-0.25-0.6
			c0-0.06,0.03-0.08,0.08-0.07c0.42,0,0.81,0,1.16-0.01c0.15-0.27,0.25-0.53,0.33-0.81h-1.17c-0.08,0-0.14-0.03-0.14-0.12
			c0-0.09,0.06-0.12,0.14-0.12h2.74c0.13-0.19,0.29-0.4,0.38-0.4c0.12,0,0.56,0.37,0.56,0.52c0,0.09-0.11,0.14-0.33,0.14H274.5z"/>
	</g>
	<g class="st7">
		<path class="st12" d="M200.61,176.85c0.09-0.12,0.22-0.25,0.28-0.25c0.14,0,0.47,0.26,0.47,0.37c0,0.07-0.09,0.16-0.22,0.22
			c-0.01,0.53-0.06,1.37-0.21,1.83c-0.16,0.53-0.57,0.58-0.83,0.58c-0.11,0-0.18-0.01-0.22-0.13c-0.04-0.1-0.08-0.16-0.21-0.22
			c-0.12-0.06-0.06-0.21,0.05-0.19c0.14,0.03,0.3,0.07,0.47,0.07c0.18,0,0.29-0.11,0.34-0.27c0.15-0.38,0.19-1.21,0.19-1.76h-0.78
			c-0.02,0.17-0.03,0.3-0.04,0.35c-0.01,0.12-0.09,0.15-0.23,0.15c-0.23,0.01-0.25-0.07-0.23-0.18c0.11-0.49,0.21-1.3,0.21-1.86
			c0-0.06,0.03-0.09,0.11-0.08c0.11,0.01,0.3,0.11,0.41,0.21h0.58c0-0.33,0.01-0.76,0.01-0.97h-1.26c-0.08,0-0.14-0.02-0.14-0.12
			c0-0.09,0.06-0.12,0.14-0.12h1.16c0.09-0.12,0.2-0.24,0.28-0.24c0.13,0,0.52,0.29,0.52,0.43c0,0.09-0.12,0.15-0.25,0.19
			c-0.01,0.39,0,1.04,0,1.23s-0.1,0.24-0.27,0.24c-0.14,0-0.19-0.11-0.19-0.21v-0.16h-0.68c-0.02,0.25-0.06,0.61-0.09,0.92H200.61z
			 M201.49,175.38c-0.08,0-0.14-0.03-0.14-0.12c0-0.09,0.06-0.12,0.14-0.12h1.38c0.01-0.33-0.01-0.79-0.03-1.02
			c-0.01-0.06,0.03-0.09,0.09-0.09c0.11,0,0.71,0.02,0.71,0.19c0,0.13-0.14,0.18-0.33,0.22v0.7h0.81c0.13-0.2,0.3-0.43,0.39-0.43
			c0.12,0,0.54,0.38,0.54,0.53c0,0.09-0.12,0.14-0.31,0.14h-1.72c0.24,0.07,0.47,0.19,0.47,0.3c-0.01,0.09-0.16,0.12-0.3,0.12
			c-0.18,0.29-0.4,0.68-0.64,0.98c0.18,0.16,0.28,0.33,0.3,0.46c0.04,0.18-0.05,0.31-0.19,0.34c-0.12,0.02-0.19-0.04-0.28-0.16
			c-0.07-0.12-0.17-0.29-0.32-0.47c-0.12-0.16-0.25-0.29-0.39-0.43c-0.09-0.08-0.01-0.21,0.12-0.17c0.2,0.07,0.37,0.15,0.51,0.24
			c0.21-0.38,0.37-0.76,0.47-1.18c0-0.01,0.01-0.03,0.01-0.03H201.49z M204.83,179.52c-0.14,0-0.2-0.07-0.27-0.23
			c-0.05-0.11-0.11-0.27-0.19-0.43c-0.62,0.19-1.44,0.33-2.55,0.43c-0.04,0.14-0.11,0.27-0.22,0.25c-0.13-0.01-0.21-0.31-0.22-0.65
			c0-0.06,0.02-0.08,0.07-0.07c0.28,0.01,0.54,0,0.79-0.01c0.64-0.79,1.25-1.84,1.58-2.67c0.01-0.04,0.06-0.06,0.12-0.04
			c0.29,0.09,0.61,0.27,0.6,0.4c-0.01,0.11-0.17,0.12-0.33,0.11c-0.37,0.58-0.93,1.49-1.53,2.18c0.62-0.03,1.14-0.09,1.58-0.17
			c-0.11-0.17-0.21-0.31-0.34-0.47c-0.08-0.09,0.02-0.23,0.15-0.16c0.71,0.33,1.04,0.86,1.06,1.19
			C205.12,179.39,205.01,179.52,204.83,179.52z"/>
		<path class="st12" d="M206.34,176.63c0.09-0.12,0.2-0.25,0.27-0.25c0.12,0,0.48,0.28,0.48,0.42c0,0.09-0.11,0.16-0.23,0.21
			c-0.01,0.34-0.01,1.12,0,1.47c0.27,0.34,0.61,0.49,1.29,0.55c0.81,0.08,2.11,0.04,3.08-0.05c0.18-0.02,0.18,0.17,0.03,0.21
			c-0.11,0.03-0.14,0.08-0.18,0.17c-0.05,0.1-0.08,0.12-0.22,0.14c-0.75,0.04-2.01,0.06-2.95-0.09c-0.66-0.11-1-0.37-1.26-0.84
			c-0.22,0.29-0.45,0.56-0.66,0.83c-0.07,0.21-0.16,0.22-0.25,0.11c-0.08-0.09-0.17-0.27-0.22-0.4c-0.02-0.08-0.02-0.11,0.07-0.16
			c0.28-0.14,0.59-0.34,0.83-0.55c0.01-0.35,0.01-1.17,0.01-1.52h-0.78c-0.08,0-0.14-0.02-0.14-0.12c0-0.09,0.06-0.12,0.14-0.12
			H206.34z M205.95,174.52c-0.09-0.13-0.02-0.27,0.16-0.21c0.38,0.12,0.76,0.38,0.77,0.71c0,0.19-0.11,0.32-0.29,0.32
			c-0.18,0-0.25-0.17-0.36-0.39C206.15,174.8,206.05,174.65,205.95,174.52z M207.11,175.21c-0.08,0-0.14-0.02-0.14-0.12
			c0-0.09,0.06-0.12,0.14-0.12h0.73c0.01-0.29,0-0.65-0.02-0.85c-0.01-0.06,0.03-0.09,0.09-0.09c0.11,0,0.67,0.02,0.67,0.18
			c0,0.12-0.14,0.17-0.33,0.21v0.55h0.28c0.11-0.16,0.24-0.32,0.3-0.32c0.11,0,0.43,0.33,0.44,0.45c0,0.09-0.11,0.12-0.25,0.12
			h-0.75c0.04,0.03,0.06,0.06,0.06,0.09c0,0.1-0.08,0.14-0.25,0.15c0,0.18-0.01,0.35-0.02,0.51h0.38c0.07-0.09,0.16-0.18,0.21-0.18
			c0.14,0,0.48,0.26,0.48,0.37c0,0.08-0.1,0.16-0.22,0.22c0.01,0.63-0.07,1.56-0.25,1.91c-0.13,0.26-0.32,0.44-0.57,0.44
			c-0.16,0-0.17-0.04-0.21-0.12c-0.02-0.07-0.1-0.11-0.13-0.14c-0.07-0.04-0.12-0.07-0.09-0.14c0.01-0.05,0.06-0.07,0.12-0.06
			c0.12,0.01,0.12,0.01,0.27,0.01c0.17,0,0.25-0.19,0.26-0.22c0.17-0.29,0.24-1.27,0.21-1.83h-0.47c-0.07,0.96-0.25,1.62-0.86,2.26
			c-0.11,0.12-0.25,0.01-0.17-0.13c0.57-0.89,0.69-1.75,0.65-3.13H207.11z M209.67,175.16c-0.14,0.23-0.32,0.48-0.55,0.7
			c-0.12,0.11-0.25,0.02-0.17-0.12c0.37-0.56,0.58-1.1,0.7-1.66c0.01-0.06,0.05-0.09,0.14-0.07c0.21,0.03,0.54,0.16,0.54,0.28
			c0.01,0.09-0.09,0.14-0.3,0.13c-0.05,0.14-0.12,0.3-0.22,0.49h0.67c0.12-0.17,0.25-0.36,0.33-0.36c0.11,0,0.48,0.35,0.48,0.48
			c0,0.09-0.12,0.13-0.27,0.13H209.67z M210.56,177.03c0.11-0.17,0.25-0.35,0.32-0.35c0.11,0,0.45,0.34,0.45,0.47
			c0,0.09-0.11,0.12-0.25,0.12h-0.65c0.02,0.14,0.04,0.3,0.04,0.48c0,0.76-0.32,1.01-0.65,1.01c-0.13,0-0.16-0.04-0.22-0.14
			c-0.06-0.1-0.09-0.13-0.21-0.18c-0.12-0.06-0.11-0.21,0.02-0.19c0.13,0.01,0.22,0.04,0.37,0.04c0.16,0,0.29-0.08,0.29-0.57
			c0-0.17-0.01-0.32-0.04-0.45h-0.89c-0.08,0-0.14-0.02-0.14-0.12c0-0.09,0.06-0.12,0.14-0.12h0.83c-0.07-0.22-0.16-0.41-0.25-0.59
			c-0.11-0.17,0.09-0.29,0.21-0.17c0.06,0.09,0.12,0.17,0.17,0.25c0.12-0.2,0.25-0.43,0.32-0.6h-0.89c-0.08,0-0.14-0.03-0.14-0.12
			c0-0.09,0.06-0.12,0.14-0.12h0.91c0.11-0.11,0.23-0.21,0.29-0.21c0.13,0,0.42,0.3,0.42,0.45c0,0.11-0.15,0.14-0.32,0.14
			c-0.16,0.17-0.36,0.45-0.61,0.66c0.06,0.09,0.1,0.2,0.14,0.31H210.56z"/>
		<path class="st12" d="M216.53,176.94c0.11-0.12,0.25-0.26,0.32-0.26c0.12,0,0.5,0.38,0.5,0.55c0,0.07-0.17,0.14-0.34,0.14
			c-0.13,0.11-0.26,0.2-0.42,0.3c-0.17,0.11-0.27,0.01-0.21-0.16c0.05-0.07,0.11-0.2,0.17-0.33h-4.03v0.03
			c-0.04,0.36-0.24,0.62-0.52,0.62c-0.14,0-0.23-0.1-0.23-0.23c0-0.21,0.23-0.26,0.37-0.51c0.08-0.13,0.08-0.3,0.09-0.46
			c0.01-0.14,0.18-0.15,0.22-0.02c0.03,0.09,0.05,0.21,0.06,0.32H216.53z M216.43,174.73c0.13-0.19,0.3-0.41,0.39-0.41
			c0.12,0,0.57,0.37,0.57,0.52c0,0.09-0.1,0.14-0.34,0.14h-5.11c-0.08,0-0.14-0.02-0.14-0.12c0-0.09,0.06-0.12,0.14-0.12h2.44
			c0-0.22-0.01-0.46-0.03-0.63c-0.01-0.06,0.03-0.09,0.09-0.09c0.11,0,0.71,0.02,0.71,0.19c0,0.13-0.14,0.18-0.33,0.22v0.31H216.43z
			 M215.45,177.76c0.12-0.18,0.27-0.38,0.36-0.38c0.12,0,0.52,0.35,0.52,0.5c0,0.09-0.11,0.13-0.3,0.13h-0.99v0.01
			c0,0.09-0.11,0.12-0.19,0.16l-0.01,1.02c0.01,0.31-0.23,0.42-0.46,0.42c-0.22,0-0.12-0.2-0.63-0.32
			c-0.14-0.04-0.12-0.22,0.01-0.22c0.15,0.02,0.41,0.05,0.5,0.05c0.14-0.01,0.18-0.04,0.18-0.16c0.01-0.22,0-0.7-0.02-0.96h-1.55
			c-0.08,0-0.14-0.03-0.14-0.12c0-0.09,0.06-0.12,0.14-0.12H215.45z M215.6,175.42c0.09-0.12,0.2-0.25,0.27-0.25
			c0.12,0,0.49,0.27,0.49,0.4c0,0.08-0.11,0.13-0.21,0.17c-0.01,0.26,0,0.61,0,0.75c0,0.19-0.09,0.24-0.27,0.24
			c-0.14,0-0.19-0.11-0.19-0.21v-0.02h-2.24v0.09c0,0.13-0.1,0.19-0.28,0.19c-0.11,0-0.17-0.06-0.17-0.17
			c0-0.33,0.02-0.88-0.03-1.35c-0.01-0.05,0.04-0.09,0.09-0.08c0.12,0.01,0.4,0.12,0.54,0.24H215.6z M215.7,176.26l0.01-0.59h-2.25
			c-0.01,0.11-0.01,0.33-0.01,0.42v0.17H215.7z"/>
	</g>
	<g class="st7">
		<path class="st12" d="M356.4,216.72c0.3,0,1.46-0.15,1.99-0.22c0.29-0.04,0.32-0.12,0.46-0.12c0.27,0,0.67,0.34,0.67,0.51
			c0,0.19-0.19,0.25-0.32,0.53c-0.43,0.94-1.24,2.01-3.01,2.57c-0.21,0.06-0.3-0.16-0.09-0.25c1.43-0.66,2.4-1.68,2.7-2.7
			c0.05-0.17,0.02-0.24-0.14-0.22c-0.36,0.03-1.28,0.2-1.65,0.3c-0.3,0.07-0.46,0.16-0.65,0.16c-0.21,0-0.54-0.28-0.62-0.59
			c-0.04-0.16,0.06-0.21,0.19-0.14C356.11,216.64,356.22,216.72,356.4,216.72z"/>
		<path class="st12" d="M364.17,218.36c-0.09,0.63-0.47,1.45-1.57,1.87c-0.22,0.09-0.32-0.14-0.11-0.25
			c0.9-0.49,1.21-1.19,1.21-1.64c0-0.15-0.23-0.18-0.23-0.29c0-0.09,0.14-0.18,0.27-0.18s0.31,0.07,0.4,0.16
			c0.25-0.16,0.47-0.32,0.65-0.55c0.07-0.09,0.07-0.14-0.01-0.14c-0.14,0-0.93,0.15-1.27,0.22c-0.48,0.09-0.75,0.2-0.92,0.2
			c-0.22,0-0.48-0.3-0.5-0.57c-0.01-0.11,0.11-0.15,0.2-0.09c0.17,0.11,0.22,0.19,0.39,0.19c0.22,0,1.6-0.21,1.87-0.24
			c0.22-0.04,0.33-0.11,0.47-0.11c0.21,0,0.53,0.3,0.53,0.48c0,0.14-0.24,0.24-0.39,0.35c-0.25,0.19-0.6,0.4-1,0.58L364.17,218.36z"
			/>
		<path class="st12" d="M369.62,218.49c-0.18,0.12-0.55,0.39-0.55,0.57c0,0.35,1.38,0.37,1.7,0.43s0.39,0.21,0.38,0.32
			c-0.01,0.11-0.12,0.19-0.32,0.19c-0.31,0.01-0.67-0.01-1.22-0.17c-0.45-0.13-0.92-0.39-0.92-0.7c0-0.27,0.47-0.62,0.8-0.94
			c0.16-0.15,0.17-0.21-0.02-0.33c-0.17-0.12-0.43-0.24-0.73-0.37c-0.15-0.07-0.13-0.24,0.09-0.22c0.42,0.03,0.94,0.21,1.21,0.41
			c0.18,0.14,0.19,0.29,0.16,0.4C370.17,218.19,369.9,218.3,369.62,218.49z M370.59,216.39c0.3,0.19,0.34,0.35,0.34,0.48
			c0,0.12-0.06,0.21-0.19,0.21c-0.16,0-0.25-0.11-0.68-0.41c-0.23-0.16-0.48-0.28-0.74-0.4c-0.17-0.08-0.14-0.25,0.06-0.24
			C369.83,216.05,370.31,216.21,370.59,216.39z"/>
		<path class="st12" d="M375.03,216.16c0.3,0,0.61,0.24,0.64,0.44c0.04,0.35,0.04,1.73-0.01,2.08c-0.02,0.14-0.09,0.22-0.22,0.22
			c-0.14,0-0.26-0.21-0.26-0.45c0-0.23,0.09-0.39,0.09-0.81c0-0.32-0.03-0.58-0.08-0.82c-0.04-0.21-0.12-0.26-0.25-0.34
			c-0.14-0.08-0.22-0.12-0.22-0.18C374.72,216.22,374.88,216.16,375.03,216.16z M376.77,215.75c0.28,0,0.63,0.16,0.67,0.35
			c0.02,0.11,0.01,0.34,0.01,0.66c0,0.62-0.07,1.39-0.33,2.02c-0.26,0.62-0.73,1.19-1.4,1.52c-0.21,0.11-0.32-0.05-0.16-0.19
			c0.53-0.43,0.89-0.85,1.14-1.46c0.24-0.58,0.33-1.68,0.23-2.29c-0.02-0.11-0.07-0.17-0.22-0.25c-0.13-0.08-0.27-0.11-0.27-0.2
			C376.42,215.8,376.66,215.75,376.77,215.75z"/>
		<path class="st12" d="M380.87,217.95c0.33,0,1.71-0.14,2.14-0.2c0.53-0.07,0.67-0.13,0.92-0.13c0.25,0,0.65,0.14,0.65,0.41
			c0,0.09-0.06,0.17-0.25,0.17c-0.23,0-0.35-0.03-0.81-0.03c-0.48,0-1.79,0.16-2.09,0.21c-0.28,0.04-0.48,0.11-0.69,0.11
			c-0.27,0-0.57-0.38-0.57-0.68c0-0.11,0.08-0.15,0.17-0.09C380.48,217.82,380.65,217.95,380.87,217.95z"/>
		<path class="st12" d="M366.03,225.76c0,0.19-0.3,0.29-0.5,0.48c-0.29,0.26-0.68,0.54-1.11,0.81c0.23,0.2,0.33,0.43,0.33,0.67
			c0,0.16-0.08,0.27-0.25,0.27c-0.2,0-0.25-0.27-0.59-0.68c-0.24-0.29-0.45-0.47-0.65-0.66c-0.12-0.11-0.04-0.25,0.14-0.18
			c0.29,0.11,0.53,0.24,0.74,0.37c0.47-0.34,0.83-0.68,1.04-1.01c0.09-0.13,0.06-0.22-0.09-0.22c-0.52,0.03-1.92,0.32-2.26,0.42
			c-0.3,0.08-0.54,0.18-0.68,0.18c-0.24,0-0.62-0.3-0.69-0.63c-0.03-0.12,0.08-0.16,0.18-0.1c0.19,0.11,0.4,0.2,0.58,0.2
			c0.35,0,1.85-0.24,2.61-0.36c0.19-0.03,0.34-0.11,0.44-0.11C365.61,225.2,366.03,225.58,366.03,225.76z"/>
		<path class="st12" d="M368.46,226.37c0.33,0,1.71-0.14,2.14-0.2c0.53-0.07,0.67-0.13,0.92-0.13c0.25,0,0.65,0.14,0.65,0.41
			c0,0.09-0.06,0.17-0.25,0.17c-0.23,0-0.35-0.03-0.81-0.03c-0.48,0-1.79,0.16-2.09,0.21c-0.28,0.04-0.48,0.11-0.69,0.11
			c-0.27,0-0.57-0.38-0.57-0.68c0-0.11,0.08-0.15,0.17-0.09C368.08,226.23,368.24,226.37,368.46,226.37z"/>
		<path class="st12" d="M376.19,224.59c0,0.14-0.1,0.3-0.12,0.68c-0.02,0.37-0.03,0.83-0.03,1.21c0,0.55,0.05,1.55,0.05,1.84
			c0,0.29-0.09,0.4-0.25,0.4c-0.19,0-0.32-0.19-0.32-0.51c0-0.24,0.12-0.79,0.12-2.02c0-0.59,0.01-0.92-0.02-1.27
			c-0.02-0.21-0.06-0.23-0.17-0.29c-0.18-0.09-0.25-0.11-0.25-0.19c0-0.09,0.26-0.2,0.39-0.2
			C375.82,224.25,376.19,224.4,376.19,224.59z M376.54,226.04c0.59,0,1.24,0.3,1.24,0.69c0,0.15-0.07,0.27-0.25,0.27
			c-0.2,0-0.33-0.34-1.07-0.73C376.32,226.21,376.34,226.04,376.54,226.04z"/>
	</g>
	<g class="st7">
		<path class="st12" d="M349.37,172.74c0,0.12-0.15,0.22-0.17,0.47c-0.06,0.64-0.23,1.46-0.64,1.86c-0.15,0.15-0.29,0.21-0.46,0.21
			c-0.25,0-0.56-0.37-0.67-0.57c-0.07-0.12-0.01-0.21,0.12-0.15c0.25,0.11,0.34,0.16,0.48,0.16s0.24-0.04,0.34-0.17
			c0.28-0.37,0.42-1.17,0.4-1.58c-0.01-0.21-0.09-0.25-0.27-0.23c-0.13,0.01-0.5,0.09-0.88,0.17c-0.32,1.09-0.92,2.03-2.02,2.65
			c-0.22,0.12-0.35-0.06-0.15-0.22c0.7-0.55,1.35-1.29,1.67-2.33c-0.11,0.02-0.22,0.04-0.32,0.06c-0.32,0.06-0.71,0.13-0.87,0.13
			c-0.23,0-0.45-0.33-0.46-0.62c0-0.14,0.09-0.15,0.19-0.08c0.2,0.16,0.33,0.21,0.51,0.21c0.16,0.01,0.6-0.05,1.05-0.11
			c0.06-0.3,0.11-0.65,0.09-0.86c-0.01-0.12-0.06-0.15-0.16-0.21c-0.12-0.07-0.22-0.09-0.22-0.17c0-0.07,0.17-0.18,0.33-0.18
			c0.23,0,0.61,0.16,0.61,0.32s-0.06,0.27-0.07,0.42c-0.02,0.15-0.05,0.4-0.09,0.62c0.26-0.04,0.49-0.07,0.63-0.1
			c0.24-0.04,0.3-0.13,0.43-0.13C349.07,172.3,349.37,172.57,349.37,172.74z"/>
		<path class="st12" d="M355.57,172.29c0,0.19-0.17,0.27-0.29,0.55c-0.46,1.12-1.29,2.09-2.72,2.62c-0.2,0.07-0.31-0.14-0.12-0.24
			c1.32-0.68,2.11-1.67,2.39-2.78c0.04-0.17,0.03-0.24-0.14-0.22c-0.21,0.01-0.68,0.07-1.04,0.12c-0.29,0.04-0.7,0.13-0.83,0.13
			c-0.07,0-0.15-0.04-0.27-0.12c0.01,0.04,0.01,0.09,0.02,0.14c0.03,0.24,0.11,1.01,0.07,1.33c-0.01,0.13-0.07,0.24-0.19,0.24
			c-0.15,0.01-0.29-0.16-0.3-0.38c-0.02-0.19,0.04-0.74-0.03-1.13c-0.06-0.29-0.19-0.38-0.37-0.61c-0.11-0.13-0.05-0.22,0.12-0.18
			c0.22,0.05,0.43,0.15,0.53,0.25c0.02,0.02,0.03,0.04,0.05,0.06c0.56-0.02,1.53-0.12,1.99-0.17c0.25-0.03,0.33-0.11,0.47-0.11
			C355.19,171.79,355.57,172.13,355.57,172.29z"/>
		<path class="st12" d="M361.96,174.54c0,0.17-0.06,0.3-0.24,0.3c-0.19,0-0.32-0.35-0.45-0.63c-0.63,0.14-2.23,0.53-2.42,0.57
			c-0.23,0.05-0.43,0.17-0.59,0.17c-0.2,0-0.46-0.32-0.46-0.54c0-0.13,0.09-0.17,0.21-0.14c0.14,0.03,0.25,0.08,0.38,0.08
			c0.05,0,0.14-0.01,0.27-0.03c0.42-0.75,0.79-1.67,0.88-2.14c0.02-0.11,0.01-0.16-0.12-0.3c-0.09-0.1-0.14-0.14-0.14-0.19
			c0-0.07,0.08-0.12,0.25-0.12c0.27,0,0.7,0.25,0.7,0.45c0,0.11-0.12,0.2-0.24,0.44c-0.22,0.44-0.54,1.12-0.91,1.82
			c0.63-0.09,1.51-0.23,2.02-0.33c-0.14-0.21-0.29-0.38-0.41-0.5c-0.17-0.17-0.07-0.31,0.14-0.22
			C361.35,173.44,361.96,174.03,361.96,174.54z"/>
		<path class="st12" d="M364.88,172.95c0.34,0,1.65-0.24,1.99-0.3c0.16-0.03,0.21-0.09,0.31-0.09c0.28,0,0.64,0.27,0.64,0.44
			c0,0.12-0.18,0.29-0.25,0.42c-0.58,1.01-1.32,1.78-2.64,2.18c-0.21,0.06-0.31-0.16-0.09-0.25c1.15-0.5,1.95-1.38,2.24-2.17
			c0.04-0.11,0.04-0.2-0.14-0.18c-0.27,0.02-1.2,0.23-1.51,0.32c-0.26,0.08-0.43,0.14-0.59,0.14c-0.17,0-0.51-0.25-0.56-0.6
			c-0.02-0.12,0.08-0.18,0.19-0.1C364.61,172.87,364.71,172.95,364.88,172.95z M365.56,171.6c0.53,0,0.94-0.23,1.16-0.23
			c0.21,0,0.39,0.08,0.39,0.19c0,0.12-0.09,0.19-0.25,0.24c-0.15,0.06-0.75,0.22-1.22,0.22c-0.36,0-0.6-0.19-0.7-0.44
			c-0.05-0.11,0.01-0.2,0.14-0.13C365.22,171.52,365.39,171.6,365.56,171.6z"/>
	</g>
	<g class="st7">
		<path class="st12" d="M374.72,171.67c-0.11,0.04-0.18,0.15-0.3,0.54c-0.06,0.21-0.27,0.21-0.24-0.02
			c0.01-0.06,0.07-0.55,0.07-0.92c0-0.1,0.16-0.14,0.21-0.06c0.09,0.12,0.2,0.14,0.38,0.14h2.79c0.29,0,0.33-0.06,0.46-0.15
			c0.08-0.06,0.21-0.01,0.17,0.12c-0.05,0.17-0.08,0.5-0.09,0.79c0,0.29-0.22,0.29-0.25,0.04c-0.03-0.28-0.08-0.4-0.16-0.45
			c-0.09-0.05-0.24-0.04-1.31-0.04c-0.04,0-0.04,0.01-0.04,0.07v2.82c0,0.26,0.01,0.39,0.01,0.52c0.01,0.22,0.06,0.3,0.53,0.35
			c0.25,0.02,0.25,0.22-0.03,0.22c-0.37,0-0.53-0.01-0.77-0.01c-0.23,0-0.69,0.01-0.8,0.01c-0.21,0-0.23-0.21,0.01-0.22
			c0.45-0.05,0.5-0.12,0.51-0.35c0.01-0.08,0.01-0.24,0.01-0.55v-2.77c0-0.09-0.01-0.11-0.06-0.11
			C374.96,171.64,374.81,171.64,374.72,171.67z"/>
		<path class="st12" d="M381.74,174.03c0,0.55-0.18,0.9-0.37,1.11c-0.19,0.22-0.62,0.6-1.25,0.6c-0.83,0-1.32-0.72-1.32-1.46
			c0-0.58,0.21-0.94,0.53-1.21c0.29-0.24,0.65-0.42,1.1-0.42C381.19,172.64,381.74,173.29,381.74,174.03z M380.17,172.95
			c-0.7,0-0.84,0.68-0.84,1.12c0,0.67,0.29,1.36,1.06,1.36c0.5,0,0.83-0.46,0.83-1.17C381.22,173.71,380.94,172.95,380.17,172.95z"
			/>
		<path class="st12" d="M383.75,174.01c0.29,0.12,0.58,0.32,0.58,0.7c0,0.31-0.14,0.6-0.5,0.83c-0.21,0.13-0.47,0.18-0.67,0.18
			c-0.26,0-0.43-0.07-0.5-0.1c-0.04-0.02-0.07-0.03-0.11,0.02c-0.07,0.08-0.22,0.12-0.22-0.05c0-0.22-0.02-0.45-0.05-0.76
			c-0.02-0.19,0.17-0.23,0.23-0.04c0.01,0.04,0.06,0.17,0.09,0.24c0.11,0.25,0.33,0.42,0.71,0.42c0.36,0,0.54-0.17,0.54-0.5
			c0-0.22-0.12-0.36-0.33-0.46c-0.18-0.08-0.42-0.16-0.6-0.23c-0.24-0.09-0.58-0.3-0.58-0.73c0-0.24,0.11-0.47,0.34-0.65
			c0.25-0.19,0.53-0.24,0.75-0.24c0.18,0,0.38,0.05,0.41,0.07c0.04,0.01,0.05,0.01,0.07-0.01c0.04-0.03,0.07-0.08,0.11-0.11
			c0.07-0.06,0.19-0.05,0.17,0.05c-0.01,0.06-0.06,0.37-0.06,0.78c0,0.21-0.19,0.24-0.22,0.07c-0.02-0.1-0.04-0.2-0.11-0.32
			c-0.09-0.17-0.29-0.27-0.53-0.27c-0.37,0-0.47,0.21-0.47,0.42c0,0.29,0.19,0.4,0.42,0.49L383.75,174.01z"/>
		<path class="st12" d="M384.71,172.97c-0.2-0.03-0.19-0.22,0.01-0.22c0.16-0.01,0.4,0.01,0.58,0.01c0.12,0,0.41-0.01,0.53-0.01
			c0.2,0,0.2,0.19,0.03,0.23c-0.24,0.06-0.27,0.09-0.22,0.23c0.24,0.58,0.53,1.29,0.69,1.7c0.02,0.03,0.04,0.04,0.05,0.01
			c0.34-0.74,0.6-1.43,0.67-1.61c0.06-0.22,0.03-0.27-0.28-0.33c-0.2-0.04-0.2-0.22,0.01-0.23c0.12,0,0.31,0.01,0.49,0.01
			c0.14,0,0.33-0.01,0.49-0.01c0.21-0.01,0.24,0.19,0.01,0.24c-0.23,0.06-0.27,0.12-0.38,0.35c-0.21,0.47-0.66,1.42-1.25,2.83
			c-0.3,0.74-0.39,1.02-0.44,1.17c-0.02,0.07-0.06,0.12-0.17,0.12c-0.21,0-0.35-0.12-0.35-0.22c0-0.09,0.07-0.22,0.19-0.4
			c0.16-0.24,0.23-0.37,0.38-0.62c0.12-0.22,0.22-0.43,0.32-0.63c0.01-0.02,0.02-0.06,0.01-0.1c-0.3-0.72-0.68-1.6-0.91-2.09
			C385.01,173.11,384.98,173.03,384.71,172.97z"/>
		<path class="st12" d="M388.9,174.39c0,0.23,0.01,0.37,0.04,0.49c0.06,0.18,0.19,0.42,0.57,0.42c0.4,0,0.63-0.25,0.75-0.4
			c0.02-0.03,0.02-0.07,0.02-0.13v-1.2c0-0.12-0.01-0.23-0.01-0.27c-0.02-0.16-0.06-0.21-0.39-0.27c-0.16-0.03-0.16-0.22,0.04-0.22
			c0.34-0.01,0.48-0.04,0.6-0.07c0.11-0.03,0.17-0.05,0.19-0.05c0.05,0,0.11,0.04,0.08,0.12c-0.01,0.06-0.04,0.27-0.04,0.65v1.15
			c0,0.32,0.01,0.52,0.05,0.56c0.07,0.09,0.12,0.09,0.33,0.08c0.11-0.01,0.14,0.12,0.04,0.21c-0.09,0.09-0.43,0.26-0.69,0.26
			c-0.16,0-0.17-0.25-0.19-0.57c-0.27,0.24-0.61,0.57-1.03,0.57c-0.27,0-0.48-0.11-0.58-0.23c-0.12-0.12-0.25-0.34-0.25-0.79v-1.02
			c0-0.11,0-0.24-0.01-0.38c-0.01-0.08-0.04-0.16-0.27-0.23c-0.14-0.04-0.11-0.19,0.03-0.22c0.23-0.03,0.4-0.09,0.53-0.14
			c0.06-0.02,0.13-0.06,0.17-0.06c0.06,0,0.11,0.05,0.09,0.14c-0.03,0.1-0.06,0.31-0.06,0.71V174.39z"/>
	</g>
	<g class="st7">
		<path class="st12" d="M449.76,214.58c0,0.19-0.17,0.27-0.29,0.55c-0.46,1.12-1.29,2.09-2.72,2.62c-0.2,0.07-0.31-0.14-0.12-0.24
			c1.32-0.68,2.11-1.67,2.39-2.78c0.04-0.17,0.03-0.24-0.14-0.22c-0.21,0.01-0.68,0.07-1.04,0.12c-0.29,0.04-0.7,0.13-0.83,0.13
			c-0.07,0-0.15-0.04-0.27-0.12c0.01,0.04,0.01,0.09,0.02,0.14c0.03,0.24,0.11,1.01,0.07,1.33c-0.01,0.13-0.07,0.24-0.19,0.24
			c-0.15,0.01-0.29-0.16-0.3-0.38c-0.02-0.19,0.04-0.74-0.03-1.13c-0.06-0.29-0.19-0.38-0.37-0.61c-0.11-0.13-0.05-0.22,0.12-0.18
			c0.22,0.05,0.43,0.15,0.53,0.25c0.02,0.02,0.03,0.04,0.05,0.06c0.56-0.02,1.53-0.12,1.99-0.17c0.25-0.03,0.33-0.11,0.47-0.11
			C449.39,214.08,449.76,214.42,449.76,214.58z"/>
		<path class="st12" d="M455.22,214.38c-0.2,0.25-0.45,0.56-0.76,0.88c0.03,0.02,0.06,0.04,0.08,0.06c0.11,0.09,0.14,0.17,0.16,0.36
			c0.05,0.51,0.04,1.42-0.01,1.88c-0.02,0.19-0.14,0.29-0.28,0.29c-0.19,0-0.29-0.23-0.29-0.44c0-0.13,0.05-0.24,0.08-0.42
			c0.06-0.33,0.07-1.02,0.04-1.27c-0.01-0.07-0.03-0.12-0.07-0.19c-0.64,0.6-1.41,1.15-2.08,1.46c-0.24,0.11-0.35-0.12-0.16-0.25
			c1.16-0.72,2.37-1.79,2.76-2.53c0.11-0.2,0.1-0.29-0.11-0.52c-0.11-0.12-0.07-0.19,0.08-0.19c0.32,0,0.73,0.3,0.73,0.52
			C455.41,214.14,455.31,214.27,455.22,214.38z"/>
		<path class="st12" d="M459.24,214.56c0.35,0,1.15-0.21,1.4-0.29c0.17-0.06,0.22-0.12,0.35-0.12c0.22,0,0.62,0.27,0.62,0.5
			c0,0.15-0.19,0.26-0.32,0.45c-0.55,0.85-1.48,1.84-3.01,2.42c-0.21,0.08-0.31-0.19-0.11-0.28c1.27-0.6,2.29-1.6,2.69-2.38
			c0.13-0.26,0.08-0.32-0.11-0.28c-0.22,0.05-1.28,0.48-1.57,0.48c-0.21,0-0.52-0.25-0.58-0.57c-0.03-0.16,0.07-0.21,0.19-0.14
			C458.99,214.48,459.09,214.56,459.24,214.56z M462.28,217.19c-0.01,0.16-0.11,0.25-0.26,0.25c-0.21,0-0.29-0.22-0.46-0.44
			c-0.19-0.22-0.35-0.38-0.59-0.58c-0.14-0.11-0.03-0.25,0.13-0.22C461.7,216.32,462.3,216.69,462.28,217.19z M462.35,214.18
			c0,0.14-0.11,0.22-0.21,0.22c-0.14,0-0.19-0.11-0.33-0.27c-0.11-0.12-0.25-0.25-0.37-0.37c-0.07-0.07-0.03-0.17,0.07-0.17
			C461.92,213.61,462.35,213.89,462.35,214.18z M462.88,213.6c0,0.13-0.08,0.22-0.2,0.22c-0.09,0-0.16-0.05-0.27-0.18
			c-0.14-0.15-0.32-0.29-0.46-0.38c-0.1-0.08-0.06-0.18,0.06-0.18C462.4,213.07,462.88,213.28,462.88,213.6z"/>
		<path class="st12" d="M468.71,215.02c0,0.19-0.3,0.29-0.5,0.48c-0.29,0.26-0.68,0.54-1.11,0.81c0.23,0.2,0.33,0.43,0.33,0.67
			c0,0.16-0.08,0.27-0.25,0.27c-0.2,0-0.25-0.27-0.59-0.68c-0.24-0.29-0.45-0.47-0.65-0.66c-0.12-0.11-0.04-0.25,0.14-0.18
			c0.29,0.11,0.53,0.24,0.74,0.37c0.47-0.34,0.83-0.68,1.04-1.01c0.09-0.13,0.06-0.22-0.09-0.22c-0.52,0.03-1.92,0.32-2.26,0.42
			c-0.3,0.08-0.54,0.18-0.68,0.18c-0.24,0-0.62-0.3-0.69-0.63c-0.03-0.12,0.08-0.16,0.18-0.1c0.19,0.11,0.4,0.2,0.58,0.2
			c0.35,0,1.85-0.24,2.61-0.36c0.19-0.03,0.34-0.11,0.44-0.11C468.28,214.46,468.71,214.84,468.71,215.02z"/>
		<path class="st12" d="M471.14,215.63c0.33,0,1.71-0.14,2.14-0.2c0.53-0.07,0.67-0.13,0.92-0.13c0.25,0,0.65,0.14,0.65,0.41
			c0,0.09-0.06,0.17-0.25,0.17c-0.23,0-0.35-0.03-0.81-0.03c-0.48,0-1.79,0.16-2.09,0.21c-0.28,0.04-0.48,0.11-0.69,0.11
			c-0.27,0-0.57-0.38-0.57-0.68c0-0.11,0.08-0.15,0.17-0.09C470.76,215.49,470.92,215.63,471.14,215.63z"/>
		<path class="st12" d="M478.87,213.85c0,0.14-0.1,0.3-0.12,0.68c-0.02,0.37-0.03,0.83-0.03,1.21c0,0.55,0.05,1.55,0.05,1.84
			c0,0.29-0.09,0.4-0.25,0.4c-0.19,0-0.32-0.19-0.32-0.51c0-0.24,0.12-0.79,0.12-2.02c0-0.59,0.01-0.92-0.02-1.27
			c-0.02-0.21-0.06-0.23-0.17-0.29c-0.18-0.09-0.25-0.11-0.25-0.19c0-0.09,0.26-0.2,0.39-0.2
			C478.49,213.51,478.87,213.66,478.87,213.85z M479.22,215.3c0.59,0,1.24,0.3,1.24,0.69c0,0.15-0.07,0.27-0.25,0.27
			c-0.2,0-0.33-0.34-1.07-0.73C479,215.46,479.02,215.3,479.22,215.3z"/>
	</g>
	<g class="st7">
		<path class="st13" d="M408.92,206.45c0.38,0,0.82,0.35,0.82,0.57c0,0.13-0.05,0.27-0.13,0.43c-0.47,0.85-1.4,1.59-2.42,1.91
			c-0.3,0.09-0.38-0.12-0.14-0.27c0.89-0.52,1.8-1.29,1.95-1.95c0.02-0.13-0.01-0.17-0.14-0.25c-0.13-0.09-0.34-0.19-0.34-0.28
			C408.51,206.52,408.72,206.45,408.92,206.45z M412.83,208.5c0,0.34-0.24,0.46-0.42,0.46c-0.13,0-0.27-0.11-0.31-0.35
			c-0.15-0.98-0.45-1.46-1.37-2.05c-0.21-0.14-0.09-0.34,0.14-0.27C411.99,206.61,412.83,207.49,412.83,208.5z M412.68,205.99
			c0,0.18-0.13,0.27-0.27,0.27c-0.18,0-0.24-0.13-0.42-0.34c-0.13-0.16-0.31-0.32-0.47-0.47c-0.09-0.09-0.04-0.22,0.09-0.21
			C412.13,205.28,412.68,205.62,412.68,205.99z M413.34,205.25c0,0.17-0.1,0.27-0.26,0.27c-0.12,0-0.2-0.06-0.34-0.23
			c-0.17-0.19-0.41-0.36-0.58-0.49c-0.13-0.09-0.07-0.23,0.08-0.23C412.74,204.59,413.34,204.85,413.34,205.25z"/>
		<path class="st13" d="M416.78,205.92c0.45,0,1.45-0.26,1.76-0.36c0.22-0.07,0.28-0.15,0.45-0.15c0.28,0,0.78,0.34,0.78,0.63
			c0,0.19-0.24,0.33-0.4,0.57c-0.69,1.08-1.87,2.32-3.8,3.06c-0.27,0.1-0.39-0.24-0.14-0.35c1.6-0.75,2.89-2.02,3.4-3.01
			c0.17-0.33,0.09-0.41-0.14-0.35c-0.27,0.06-1.62,0.6-1.98,0.6c-0.26,0-0.65-0.32-0.73-0.72c-0.04-0.2,0.09-0.27,0.24-0.17
			C416.46,205.83,416.59,205.92,416.78,205.92z M420.62,209.24c-0.01,0.2-0.14,0.31-0.33,0.31c-0.27,0-0.36-0.28-0.59-0.56
			c-0.24-0.28-0.44-0.48-0.75-0.73c-0.17-0.14-0.04-0.31,0.16-0.27C419.88,208.14,420.64,208.61,420.62,209.24z"/>
	</g>
	<g class="st7">
		<path class="st13" d="M412.86,243.79c-0.01-0.99-0.04-2.07-0.14-2.63c-0.02-0.1,0.04-0.15,0.14-0.15c0.71,0,1.29,0.06,1.29,0.33
			c0,0.18-0.22,0.3-0.55,0.37c-0.02,0.75-0.02,3.4-0.02,3.82c0,0.77,0.04,4.03,0.04,4.47c0,0.25-0.17,0.38-0.52,0.38
			c-0.2,0-0.33-0.12-0.33-0.32c0-0.29,0.03-1.47,0.06-2.55c-0.64,0.42-1.4,0.77-2.45,1.13c-0.02,0.27-0.1,0.53-0.29,0.53
			c-0.22,0-0.48-0.5-0.58-1.05c-0.01-0.1,0.03-0.14,0.12-0.15c1.28-0.27,2.35-0.64,3.21-1.02c0.01-0.51,0.02-0.96,0.02-1.2
			c0-0.18,0.01-0.8,0-1.53h-2.87c-0.14,0-0.23-0.04-0.23-0.21c0-0.16,0.1-0.21,0.23-0.21H412.86z M419.41,249.38
			c0,0.23-0.34,0.65-2.21,0.65c-1.92,0-2.19-0.29-2.19-1.18c0-0.45,0.08-6.48-0.08-7.64c-0.02-0.15,0.01-0.2,0.19-0.2
			c0.8,0,1.19,0.11,1.19,0.33c0.01,0.21-0.28,0.33-0.53,0.36c-0.02,0.25-0.02,1.94-0.03,3.58c1.02-0.73,1.86-1.55,2.42-2.42
			c0.06-0.1,0.14-0.14,0.24-0.07c0.37,0.19,0.99,0.79,0.9,1.02c-0.06,0.19-0.31,0.18-0.64,0.02c-0.56,0.54-1.61,1.34-2.94,1.96
			c0,1.4,0,2.67,0,2.87c0,0.56,0.1,0.65,1.42,0.65c1.17,0,1.35-0.15,1.46-0.43c0.1-0.26,0.19-0.68,0.25-0.86
			c0.06-0.23,0.27-0.22,0.28,0.01c0.01,0.17,0.01,0.52,0.02,0.77C419.21,249.14,419.41,249.14,419.41,249.38z"/>
		<path class="st13" d="M427.93,242.2c0.17-0.21,0.37-0.45,0.5-0.45c0.24,0,0.94,0.51,0.94,0.75c0,0.17-0.22,0.29-0.46,0.37
			c-0.07,1.5,0.03,5.89,0.03,6.65c0,0.33-0.2,0.42-0.51,0.42c-0.26,0-0.34-0.19-0.34-0.36v-0.61h-5.91v0.67
			c0,0.24-0.17,0.37-0.52,0.37c-0.2,0-0.31-0.12-0.31-0.31c0-1.12,0.13-6.38-0.04-7.82c-0.01-0.08,0.06-0.16,0.16-0.15
			c0.17,0.04,0.71,0.25,1,0.46H427.93z M428.1,248.55c0.01-1.72,0.03-5.05,0.01-5.92h-5.66c-0.07,0.03-0.16,0.04-0.25,0.06
			c-0.04,0.64-0.04,2.75-0.04,3.13l0.01,2.73H428.1z"/>
	</g>
	<g class="st7">
		<g>
			<path class="st13" d="M405.62,224.58c-1.51,0-2.74,1.23-2.74,2.74s1.23,2.74,2.74,2.74c1.51,0,2.74-1.23,2.74-2.74
				S407.13,224.58,405.62,224.58z M405.62,228.51c-0.66,0-1.19-0.53-1.19-1.19c0-0.66,0.53-1.19,1.19-1.19
				c0.66,0,1.19,0.53,1.19,1.19C406.81,227.98,406.28,228.51,405.62,228.51z"/>
			<path class="st13" d="M421.7,224.58c-1.51,0-2.74,1.23-2.74,2.74s1.23,2.74,2.74,2.74c1.51,0,2.74-1.23,2.74-2.74
				S423.21,224.58,421.7,224.58z M421.7,228.51c-0.66,0-1.19-0.53-1.19-1.19c0-0.66,0.53-1.19,1.19-1.19c0.66,0,1.19,0.53,1.19,1.19
				C422.89,227.98,422.36,228.51,421.7,228.51z"/>
			<path class="st13" d="M426.93,213.49h-24.57c-0.9,0-1.78,0.72-1.96,1.6l-0.98,3.59c-0.18,0.88-0.33,2.34-0.33,3.24v3.77
				c0,0.9,0.74,1.64,1.64,1.64h1.67c0-1.78,1.45-3.23,3.23-3.23c1.78,0,3.23,1.45,3.23,3.23h9.62c0-1.78,1.45-3.23,3.23-3.23
				c1.78,0,3.23,1.45,3.23,3.23h2c0.9,0,1.64-0.74,1.64-1.64v-10.56C428.57,214.22,427.83,213.49,426.93,213.49z M405.88,220.39
				h-3.82l0.6-1.43c0.11-0.25-0.01-0.54-0.26-0.64c-0.25-0.11-0.54,0.01-0.64,0.26l-0.75,1.78c-0.51-0.13-0.81-0.61-0.71-1.17
				l0.88-3.51c0.12-0.66,0.78-1.21,1.45-1.21h3.24L405.88,220.39L405.88,220.39z M413.17,220.39h-6.3v-5.93h6.3V220.39z
				 M420.45,220.39h-6.3v-5.93h6.3V220.39z M427.56,219.17c0,0.68-0.55,1.23-1.23,1.23h-4.9v-5.93h4.9c0.68,0,1.23,0.55,1.23,1.23
				V219.17z"/>
		</g>
	</g>
	<path class="st15" d="M193.79,168.38c0,8.93-12.12,22.75-12.12,22.75s-12.12-13.82-12.12-22.75c0-6.69,5.43-12.12,12.12-12.12
		S193.79,161.69,193.79,168.38z"/>
	<circle class="st14" cx="181.67" cy="167.03" r="4.18"/>
	<path class="st16" d="M299.88,198.26h-14.14c-1.25,0-2.27-1.01-2.27-2.27v-2.29c0-1.25,1.01-2.27,2.27-2.27h14.14
		c1.25,0,2.27,1.01,2.27,2.27V196C302.15,197.25,301.13,198.26,299.88,198.26z"/>
	<path class="st17" d="M181.67,191.14l0.26,10.47l108.17-5.96c0,0,42.38,2,57.4,1.78c13.21-0.19,41.45-2.4,41.45-2.4l12.27,69.34
		l11.81,7.4"/>
	<g class="st7">
		<circle class="st12" cx="287.34" cy="194.85" r="2.39"/>
		<circle class="st18" cx="292.81" cy="194.85" r="2.39"/>
		<circle class="st19" cx="298.29" cy="194.85" r="2.39"/>
	</g>
	<line class="st1" x1="35.88" y1="149.08" x2="44" y2="392.22"/>
</g>
</svg>
